<?xml version="1.0" encoding="UTF-8"?>
<svg version="1.1" xmlns="http://www.w3.org/2000/svg" width="1080" height="1080">
<path d="M0 0 C4.99301713 0.48893046 7.84448851 1.93325006 11.875 4.875 C13.02283367 5.70136021 14.17129989 6.52684233 15.3203125 7.3515625 C16.21991699 8.00366699 16.21991699 8.00366699 17.13769531 8.66894531 C19.00744414 10.00532059 20.89922313 11.30108239 22.8046875 12.5859375 C32.83586303 19.35013046 42.45170203 26.57354602 52 34 C52.83917969 34.64582031 53.67835938 35.29164063 54.54296875 35.95703125 C59.90519678 40.09188251 65.18312412 44.33269792 70.4597168 48.57592773 C74.7647147 52.03317895 79.12047225 55.40963139 83.55859375 58.6953125 C84.03425781 59.12585938 84.50992188 59.55640625 85 60 C85 60.66 85 61.32 85 62 C85.58265625 62.26425781 86.1653125 62.52851563 86.765625 62.80078125 C89.08910711 64.04782497 90.79587105 65.42313151 92.75 67.1875 C94.88935536 69.11051605 97.02606179 71.02194677 99.2265625 72.875 C99.93554688 73.473125 100.64453125 74.07125 101.375 74.6875 C102.34566406 75.49767578 102.34566406 75.49767578 103.3359375 76.32421875 C105 78 105 78 105.9765625 80.08203125 C107.29715772 82.55688718 108.48889892 82.78341482 111 84 C113.14148084 85.81572648 115.20434086 87.64508419 117.25 89.5625 C117.8277417 90.0989917 118.4054834 90.6354834 119.00073242 91.18823242 C122.8953871 94.84754078 126.52324243 98.64199626 129.92578125 102.76953125 C131.7878866 104.77190819 133.68904172 106.49252067 135.76171875 108.26953125 C139.96078595 111.89355617 143.74330175 115.7998876 147.5 119.875 C148.15363525 120.57898926 148.80727051 121.28297852 149.48071289 122.00830078 C151.32606298 124.00047925 153.16476485 125.99850477 155 128 C155.81339844 128.886875 156.62679687 129.77375 157.46484375 130.6875 C161.54348401 135.21034861 165.34271425 139.90068536 169.04296875 144.73828125 C170.94546283 147.08352319 170.94546283 147.08352319 173.44140625 148.91015625 C176.39339065 151.32131908 178.5198119 154.07219417 180.75 157.125 C184.58725307 162.25505222 188.65582221 167.03225415 192.9921875 171.75390625 C195.26343227 174.29469563 197.2843564 176.93908876 199.2890625 179.69140625 C201.54763621 182.73893379 203.89966479 185.71070493 206.25 188.6875 C207.69344763 190.52184554 209.13610312 192.35681172 210.57861328 194.19189453 C211.50093944 195.36515931 212.42376161 196.53803441 213.34716797 197.71044922 C218.5788327 204.36697438 223.50170925 211.1350234 228.1328125 218.23046875 C229.84711626 220.77323311 231.64873339 223.16816532 233.5625 225.5625 C236.7377272 229.55482856 239.43648643 233.74420711 242.1328125 238.0703125 C244.09451733 241.14830125 246.15544157 244.13596822 248.25 247.125 C251.88360565 252.33816275 255.41091408 257.61017317 258.875 262.9375 C259.33938477 263.64729004 259.80376953 264.35708008 260.28222656 265.08837891 C267 275.47463652 267 275.47463652 267 279 C267.66 279 268.32 279 269 279 C270.51095949 281.32575376 271.89216292 283.64817842 273.25 286.0625 C274.15166146 287.63395275 275.05542125 289.20420283 275.9609375 290.7734375 C276.44916992 291.6200293 276.93740234 292.46662109 277.44042969 293.33886719 C279.60354036 297.02983562 281.85142398 300.66616192 284.09814453 304.30664062 C290.5167548 314.71329097 296.53621911 325.27221772 302.3203125 336.04296875 C304.55455375 340.20162175 306.87510554 344.29517157 309.25 348.375 C312.44061646 353.90231274 315.32504823 359.53723914 318.14599609 365.25805664 C319.98544206 368.98525998 321.86838743 372.67128731 323.875 376.3125 C330.52197236 388.37819984 336.97908355 400.45053921 342.39990234 413.12524414 C342.69977051 413.82383545 342.99963867 414.52242676 343.30859375 415.2421875 C343.56439209 415.8491748 343.82019043 416.45616211 344.08374023 417.08154297 C345.01452229 419.11268831 345.01452229 419.11268831 346.43432617 421.36157227 C348.09709812 424.16362691 349.42378419 426.99353146 350.7421875 429.97265625 C351.25136719 431.12056641 351.76054688 432.26847656 352.28515625 433.45117188 C352.80980469 434.64291016 353.33445312 435.83464844 353.875 437.0625 C354.39191406 438.22716797 354.90882813 439.39183594 355.44140625 440.59179688 C357.85872378 446.0566394 360.23408066 451.53238938 362.5078125 457.05859375 C364.20155363 461.16480727 366.00828825 465.19332871 367.90234375 469.2109375 C371.47652604 476.88051318 374.51493343 484.73591558 377.5625 492.625 C380.78110457 500.94466499 384.0182576 509.19848064 387.77856445 517.29199219 C390.15165621 522.55330214 392.22450881 527.93321602 394.3125 533.3125 C394.76689453 534.45267578 395.22128906 535.59285156 395.68945312 536.76757812 C396.11806641 537.87166016 396.54667969 538.97574219 396.98828125 540.11328125 C397.37540283 541.10110596 397.76252441 542.08893066 398.16137695 543.10668945 C399 546 399 546 399 552 C357.09 552 315.18 552 272 552 C265.09056351 533.57483604 265.09056351 533.57483604 262.74609375 526.87109375 C262.47789322 526.10805435 262.20969269 525.34501495 261.93336487 524.55885315 C261.3773696 522.97580052 260.82218139 521.39246421 260.26782227 519.80883789 C259.43660135 517.43493352 258.60227966 515.0621356 257.76757812 512.68945312 C255.46795595 506.13925841 253.18019219 499.58936008 251.02760315 492.98916626 C249.04606994 486.91886304 246.82641245 481.04760816 244.3125 475.18017578 C242.78836888 471.4872197 241.4130001 467.75530942 240.0625 463.99609375 C239.81193848 463.29908356 239.56137695 462.60207336 239.30322266 461.88394165 C238.27456135 459.01400127 237.25056235 456.14242494 236.22949219 453.26977539 C233.51904116 445.65760972 230.75095354 438.18289263 227.30078125 430.86743164 C224.64251137 425.00756306 222.35159501 418.98808214 220 413 C218.76846191 412.98018066 217.53692383 412.96036133 216.26806641 412.93994141 C211.70942339 412.86400818 207.15110473 412.77527237 202.59277344 412.68261719 C200.61790356 412.64427651 198.64296264 412.6094327 196.66796875 412.578125 C193.83307455 412.53258453 190.9986717 412.47457285 188.1640625 412.4140625 C187.27756012 412.40251129 186.39105774 412.39096008 185.47769165 412.37905884 C184.65699188 412.35918915 183.83629211 412.33931946 182.99072266 412.31884766 C182.26680328 412.30552399 181.54288391 412.29220032 180.79702759 412.2784729 C179 412 179 412 177 410 C176.75949097 407.55758667 176.75949097 407.55758667 176.77294922 404.44873047 C176.77317581 402.70715164 176.77317581 402.70715164 176.77340698 400.9303894 C176.78372955 399.67203278 176.79405212 398.41367615 176.8046875 397.1171875 C176.8075174 395.83264679 176.81034729 394.54810608 176.81326294 393.22463989 C176.82090191 389.80837233 176.84055248 386.39227463 176.8626709 382.97607422 C176.88312375 379.4905837 176.89237296 376.00506493 176.90234375 372.51953125 C176.92273729 365.67953744 176.9618823 358.84001019 177 352 C159.51 352.33 142.02 352.66 124 353 C124.02320313 357.09148437 124.04640625 361.18296875 124.0703125 365.3984375 C124.08317002 368.65618772 124.09401717 371.91393079 124.10350037 375.17169189 C124.11407164 378.61321078 124.12820344 382.05463152 124.15087891 385.49609375 C124.17672063 389.44269638 124.18646493 393.38925863 124.1953125 397.3359375 C124.20563507 398.57242035 124.21595764 399.8089032 124.22659302 401.08285522 C124.22674408 402.22388702 124.22689514 403.36491882 124.22705078 404.54052734 C124.231492 405.548685 124.23593323 406.55684265 124.24050903 407.59555054 C124 410 124 410 122 412 C120.0645752 412.25396729 120.0645752 412.25396729 117.67382812 412.25878906 C116.77950073 412.26509338 115.88517334 412.27139771 114.96374512 412.27789307 C113.51216003 412.27182037 113.51216003 412.27182037 112.03125 412.265625 C111.04000122 412.26753845 110.04875244 412.2694519 109.02746582 412.27142334 C106.92927802 412.27278585 104.83108181 412.26908482 102.73291016 412.26074219 C99.51315454 412.25004371 96.29395692 412.26063536 93.07421875 412.2734375 C91.03906126 412.27211592 89.00390412 412.26955355 86.96875 412.265625 C86.00102661 412.26967346 85.03330322 412.27372192 84.03625488 412.27789307 C82.69476379 412.26843658 82.69476379 412.26843658 81.32617188 412.25878906 C80.14275208 412.25640228 80.14275208 412.25640228 78.9354248 412.25396729 C77 412 77 412 75 410 C74.75111103 407.37003326 74.75111103 407.37003326 74.75276184 403.96447754 C74.74856735 402.67725296 74.74437286 401.39002838 74.74005127 400.063797 C74.74553519 398.62911912 74.75121818 397.194442 74.75708008 395.75976562 C74.75600764 394.25534482 74.75406954 392.75092442 74.75132751 391.24650574 C74.74646981 387.15360462 74.75414636 383.0608121 74.76428056 378.96792412 C74.77304623 374.69138583 74.7713039 370.4148511 74.7709198 366.13830566 C74.77185713 358.95562923 74.78055032 351.77299498 74.79418945 344.59033203 C74.8099157 336.27766244 74.81518759 327.96503906 74.8144539 319.65235567 C74.81384418 311.6668054 74.81894448 303.68127023 74.82724571 295.69572449 C74.83078269 292.29225039 74.83260955 288.88878163 74.83313942 285.48530579 C74.83414175 281.47986971 74.84022935 277.47447266 74.85030556 273.46904945 C74.85323388 271.99601289 74.85445526 270.52297184 74.85387802 269.04993248 C74.85338957 267.04512493 74.8596447 265.04031906 74.86628723 263.03552246 C74.86796308 261.91168907 74.86963892 260.78785568 74.87136555 259.62996674 C75 257 75 257 76 255 C91.51 255 107.02 255 123 255 C124.28566729 257.57133459 124.12009778 259.397171 124.11352539 262.27587891 C124.11341209 263.92736435 124.11341209 263.92736435 124.11329651 265.61221313 C124.10813522 266.80494843 124.10297394 267.99768372 124.09765625 269.2265625 C124.0962413 270.44451508 124.09482635 271.66246765 124.09336853 272.91732788 C124.08775639 276.8199099 124.07520179 280.72243523 124.0625 284.625 C124.05748657 287.26562417 124.05292339 289.90624924 124.04882812 292.546875 C124.0386325 299.03128959 124.01905936 305.51558109 124 312 C141.16 311.67 158.32 311.34 176 311 C174.03995735 304.46652451 172.2040907 298.81245476 169.25 292.8125 C168.53607712 291.3309128 167.82254269 289.84913836 167.109375 288.3671875 C166.75423828 287.63467773 166.39910156 286.90216797 166.03320312 286.14746094 C164.79426668 283.5723936 163.59355345 280.98102935 162.39874268 278.38526917 C159.80891077 272.772545 157.129354 267.21732639 154.34375 261.69921875 C151.36448086 255.76943485 148.44266324 249.81445698 145.5625 243.8359375 C145.18855103 243.06111526 144.81460205 242.28629303 144.42932129 241.48799133 C142.90149024 238.32182278 141.37412546 235.15546462 139.85449219 231.98535156 C135.43236328 222.76723314 130.84181297 213.75459517 125.68847656 204.92285156 C123.75079822 201.56861717 122.04253299 198.18274773 120.375 194.6875 C115.25047591 184.18548753 109.40006374 174.07452475 103.64501953 163.90966797 C102.1926204 161.34070198 100.74784708 158.76775226 99.30859375 156.19140625 C95.82512343 149.95790303 92.29600865 143.7657065 88.578125 137.66796875 C87.34385629 135.5813214 86.15337163 133.48630539 84.984375 131.36328125 C80.83785516 123.83739846 76.49681573 116.59023598 71.65234375 109.49194336 C68.9798137 105.54965221 66.55746132 101.54712622 64.25 97.375 C59.21237846 88.35652886 53.33670388 79.89546623 47.56787109 71.33447266 C45.60127522 68.40632103 43.66287931 65.46355936 41.75 62.5 C41.24984375 61.7265625 40.7496875 60.953125 40.234375 60.15625 C38.90781984 57.83897644 37.93273052 55.49901386 37 53 C36.34 53 35.68 53 35 53 C33.45873035 50.86310024 32.03270025 48.72310294 30.625 46.5 C26.94057845 40.82188796 23.09547992 35.32663675 19 29.9375 C15.08180229 24.77314766 11.20892475 19.58532839 7.4375 14.3125 C7.03208984 13.74845459 6.62667969 13.18440918 6.20898438 12.60327148 C0 3.88671129 0 3.88671129 0 0 Z " fill="#BD1522" transform="translate(253,266)"/>
<path d="M0 0 C1.40342982 0.00138269 1.40342982 0.00138269 2.83521175 0.00279331 C3.90518398 0.00141865 4.97515621 0.00004398 6.07755184 -0.00137234 C7.26150036 0.00222294 8.44544888 0.00581821 9.66527462 0.00952244 C11.52354885 0.0093034 11.52354885 0.0093034 13.41936398 0.00907993 C16.82624443 0.00965891 20.23306494 0.01468824 23.63993478 0.02165389 C27.19671437 0.0278879 30.75349468 0.02849126 34.31027889 0.0296793 C41.04991192 0.03279248 47.78952881 0.04100568 54.52915472 0.05102879 C62.20013009 0.06219035 69.87110621 0.06770048 77.54208767 0.07272422 C93.32591651 0.08318831 109.10972923 0.10078748 124.8935461 0.12304783 C124.15153121 4.23538835 122.91968627 7.29254334 120.9560461 10.99804783 C117.75066019 17.19445474 114.94387635 23.5204571 112.2060461 29.93554783 C108.58516013 38.40017514 104.73659327 46.7209076 100.7060461 54.99804783 C96.98724663 62.64091469 93.46797419 70.2916242 90.32103634 78.18652439 C88.47288772 82.79937861 86.43401862 87.27630844 84.2685461 91.74804783 C79.65756205 101.29406243 75.66096598 111.10480632 71.63719845 120.90869236 C68.81070748 127.76312696 65.77978307 134.43757837 62.40282345 141.04272556 C59.49100095 146.98553768 57.0355686 153.13046925 54.5185461 159.24804783 C53.38607937 161.98886043 52.25046155 164.72834695 51.1122961 167.46679783 C50.83612453 168.1316016 50.55995296 168.79640537 50.27541256 169.48135471 C48.66292161 173.34252852 46.99073898 177.1676716 45.2372961 180.96679783 C44.856217 181.79292576 44.4751379 182.61905369 44.08251095 183.4702158 C43.39674609 184.93836315 42.69994459 186.40143042 41.98973751 187.85791111 C40.17865746 191.73627277 39.44576916 194.04709921 40.8935461 198.12304783 C41.75916384 200.28997755 42.68530004 202.43295695 43.6435461 204.56054783 C44.27214431 205.96895876 44.8996471 207.37785885 45.5263586 208.78711033 C46.07211544 210.01155857 46.07211544 210.01155857 46.62889767 211.26074314 C48.12758168 214.65274533 49.60241195 218.05484048 51.0732336 221.45898533 C51.35485348 222.1106316 51.63647335 222.76227787 51.92662716 223.433671 C53.07127681 226.08319471 54.2154159 228.732938 55.35875607 231.38302708 C58.79048198 239.33393523 62.28870683 247.2490182 65.8935461 255.12304783 C67.70391822 259.09406974 69.49268904 263.07398307 71.2685461 267.06054783 C71.73131954 268.07439548 72.19409298 269.08824314 72.67088985 270.13281345 C73.31864376 271.59557713 73.31864376 271.59557713 73.9794836 273.08789158 C74.371842 273.96050632 74.7642004 274.83312107 75.16844845 275.73217869 C75.97827378 278.40242094 75.6631052 279.51150387 74.8935461 282.12304783 C68.29198634 282.30067214 61.69104322 282.42317612 55.0876379 282.50756931 C52.84196096 282.54275175 50.59644413 282.59050652 48.35130978 282.651124 C45.12149741 282.73613786 41.89380509 282.7757585 38.66307735 282.80664158 C37.66081615 282.84277058 36.65855495 282.87889957 35.6259222 282.91612339 C28.83467538 282.9199408 28.83467538 282.9199408 26.18704891 280.67808628 C24.86020363 278.88305461 23.84851498 277.13783821 22.8935461 275.12304783 C22.49417843 274.32600437 22.09481075 273.52896091 21.68334103 272.70776463 C21.41626339 272.00305027 21.14918575 271.29833591 20.87401485 270.57226658 C20.42445431 269.40147556 20.42445431 269.40147556 19.96581173 268.2070322 C19.67383907 267.41619236 19.38186642 266.62535252 19.0810461 265.81054783 C18.76973751 265.00037205 18.45842892 264.19019627 18.13768673 263.3554697 C15.8935461 257.43192489 15.8935461 257.43192489 15.8935461 255.12304783 C14.9035461 255.12304783 13.9135461 255.12304783 12.8935461 255.12304783 C12.7717297 256.09564548 12.7717297 256.09564548 12.64745235 257.08789158 C11.61208139 261.25619851 9.73202039 264.84865777 7.8310461 268.68554783 C4.61963249 275.3029482 1.67792488 281.95312999 -0.9814539 288.81054783 C-3.94102965 296.4252896 -7.2169226 303.84397934 -10.6689539 311.24804783 C-14.3375847 319.12104998 -17.74184736 327.01934663 -20.81665897 335.14184666 C-23.00248322 340.91384108 -25.32491016 346.60758954 -28.1064539 352.12304783 C-28.56536015 353.04472752 -29.0242664 353.9664072 -29.4970789 354.91601658 C-30.29371952 356.00849705 -30.29371952 356.00849705 -31.1064539 357.12304783 C-32.4264539 357.12304783 -33.7464539 357.12304783 -35.1064539 357.12304783 C-35.40825565 356.37321629 -35.71005741 355.62338474 -36.02100468 354.85083103 C-37.1702729 352.00000613 -38.32249842 349.15039763 -39.47657108 346.30151463 C-40.20956339 344.48965816 -40.93930905 342.6764893 -41.6689539 340.8632822 C-47.30353425 326.96718877 -53.7945236 313.50861443 -60.34717655 300.02905369 C-61.6083964 297.43154721 -62.86326858 294.8310321 -64.11817265 292.2304697 C-67.72692457 284.78536004 -71.32424452 277.44386639 -75.7158289 270.42114353 C-78.52474414 265.77923357 -80.89546298 260.89287608 -83.3564539 256.06054783 C-87.53657926 247.92947588 -91.84984631 239.94405884 -96.56714725 232.1132822 C-99.92234438 226.52059959 -102.9942441 220.8033353 -105.97657108 215.0039072 C-108.08589439 210.93003779 -110.37624858 207.04566937 -112.8366785 203.1745615 C-115.02849321 199.63335424 -116.98963123 195.96668398 -118.9814539 192.31054783 C-122.24953611 186.36725483 -125.60341125 180.53818615 -129.3408289 174.87304783 C-132.0304646 170.68388072 -134.55875265 166.39960201 -137.1064539 162.12304783 C-138.60586615 159.60641956 -140.1053069 157.0898137 -141.6064539 154.5742197 C-142.60817333 152.89555706 -143.60816848 151.21586429 -144.6064539 149.5351572 C-147.50538589 144.68473062 -150.52442438 139.94923432 -153.68262577 135.26391697 C-155.83728865 132.0241641 -157.85700006 128.71011538 -159.8564539 125.37304783 C-160.24188358 124.74011814 -160.62731327 124.10718845 -161.02442265 123.45507908 C-163.04118447 120.09846166 -164.78305035 116.81168326 -166.1064539 113.12304783 C-166.7664539 113.12304783 -167.4264539 113.12304783 -168.1064539 113.12304783 C-169.30811405 111.56933689 -169.30811405 111.56933689 -170.6455164 109.38867283 C-171.13963017 108.5925156 -171.63374393 107.79635838 -172.14283085 106.97607517 C-172.66707645 106.11707615 -173.19132206 105.25807713 -173.7314539 104.37304783 C-174.82027286 102.61980682 -175.91011659 100.86720181 -177.00098515 99.11523533 C-177.53288456 98.2576865 -178.06478397 97.40013767 -178.61280155 96.51660252 C-183.17938974 89.19871585 -187.99687525 82.16535126 -193.37598515 75.41992283 C-195.98604974 71.95554816 -198.2503971 68.29185006 -200.5283289 64.60351658 C-202.0552944 62.1193063 -202.0552944 62.1193063 -203.8095789 59.92382908 C-205.1064539 58.12304783 -205.1064539 58.12304783 -205.1064539 56.12304783 C-205.7664539 56.12304783 -206.4264539 56.12304783 -207.1064539 56.12304783 C-208.97572297 53.63576308 -210.74044068 51.13577929 -212.4814539 48.56054783 C-217.1398073 41.77877539 -222.02341955 35.29904613 -227.35987186 29.03491306 C-230.04773834 25.8001234 -231.76265854 23.37651591 -232.1064539 19.12304783 C-231.4464539 18.79304783 -230.7864539 18.46304783 -230.1064539 18.12304783 C-224.46458878 22.92211349 -219.16722248 27.96236078 -213.9814539 33.24804783 C-208.59078503 38.7762389 -208.59078503 38.7762389 -202.81348515 43.88867283 C-200.5570647 45.7511151 -198.76426283 47.50201496 -196.9189539 49.74804783 C-193.97339755 53.20956638 -190.84208185 56.435059 -187.6064539 59.62304783 C-183.22262698 63.96057447 -179.10079077 68.42658142 -175.1064539 73.12304783 C-172.98569809 75.58505784 -170.8586416 78.04159476 -168.7314539 80.49804783 C-167.88357304 81.47910496 -167.88357304 81.47910496 -167.01856327 82.47998142 C-163.80121096 86.19552237 -160.5446104 89.86719139 -157.2314539 93.49804783 C-153.87672662 97.19559395 -150.79143536 101.02533248 -147.7705164 104.99804783 C-146.20467954 106.99761414 -144.56460825 108.86988759 -142.8564539 110.74804783 C-138.91935933 115.15723745 -135.51732729 119.93972141 -132.10157108 124.75634861 C-130.07458264 127.58369615 -128.1258876 130.10386051 -125.64161015 132.55664158 C-122.33567879 135.90332401 -119.8153278 139.62166916 -117.1689539 143.49804783 C-113.81436295 148.39791487 -110.38888249 153.05068085 -106.47046757 157.51464939 C-104.51690269 159.81822652 -102.87615144 162.27997242 -101.2314539 164.81054783 C-100.22598515 166.34775486 -100.22598515 166.34775486 -99.2002039 167.91601658 C-98.5092664 168.97433689 -97.8183289 170.0326572 -97.1064539 171.12304783 C-94.99748723 174.26050704 -92.88496601 177.39553187 -90.7705164 180.52929783 C-89.38589661 182.68748454 -88.18968149 184.80340895 -87.1064539 187.12304783 C-84.07795228 184.56234998 -82.90620307 181.75583093 -81.39942265 178.12695408 C-80.89475468 176.92748142 -80.39008671 175.72800877 -79.87012577 174.49218845 C-79.3441729 173.2235412 -78.81878441 171.95465981 -78.2939539 170.68554783 C-75.40553722 163.73600818 -72.52604834 156.82188598 -69.09473515 150.11914158 C-65.69277071 143.45133574 -62.89902319 136.56265526 -60.1064539 129.62304783 C-56.85166793 121.53481995 -53.44867881 113.62621343 -49.47705936 105.86132908 C-47.51474589 101.9408966 -45.82806116 97.92893644 -44.1689539 93.87304783 C-43.48623135 92.22945651 -42.80262232 90.58623316 -42.11817265 88.94336033 C-41.78221073 88.13544041 -41.44624882 87.32752048 -41.10010624 86.49511814 C-37.68400791 78.34012763 -34.12008562 70.24845356 -30.3564539 62.24804783 C-27.33244985 55.75651914 -24.56830485 49.16203167 -21.7939539 42.56054783 C-18.33477779 34.33491115 -14.83176395 26.13530014 -11.1689539 17.99804783 C-10.81599247 17.21228367 -10.46303104 16.42651951 -10.09937382 15.61694431 C-3.10543172 0.1814028 -3.10543172 0.1814028 0 0 Z " fill="#F61821" transform="translate(707.1064538955688,395.8769521713257)"/>
<path d="M0 0 C0.83272934 0.00222061 1.66545868 0.00444122 2.52342224 0.00672913 C3.95458374 0.0069104 3.95458374 0.0069104 5.41465759 0.00709534 C6.92920532 0.01476929 6.92920532 0.01476929 8.47434998 0.02259827 C9.39727844 0.02360535 10.32020691 0.02461243 11.27110291 0.02565002 C14.73339574 0.03089958 18.19567092 0.04486071 21.65794373 0.05775452 C29.39231873 0.07837952 37.12669373 0.09900452 45.09544373 0.12025452 C45.42544373 18.60025452 45.75544373 37.08025452 46.09544373 56.12025452 C54.33555222 47.96623245 54.33555222 47.96623245 61.53294373 39.18275452 C65.82596474 33.52856929 70.43763838 28.6392628 75.54466248 23.69837952 C77.93674682 21.28065261 80.01906795 18.80981662 82.09544373 16.12025452 C83.02042664 14.98438904 83.02042664 14.98438904 83.96409607 13.82557678 C86.13839109 11.15955936 86.13839109 11.15955936 87.91893005 8.24989319 C91.3150328 3.76643347 94.22642685 0.71274097 99.89225769 -0.45732117 C108.17853609 -1.27238332 116.47810557 -0.87943329 124.78294373 -0.56724548 C127.33427062 -0.51201074 129.88571225 -0.46183084 132.4372406 -0.41685486 C138.65916333 -0.29622646 144.87676661 -0.11269197 151.09544373 0.12025452 C151.09544373 4.12025452 151.09544373 4.12025452 149.92137146 5.7325592 C149.37940125 6.24721741 148.83743103 6.76187561 148.27903748 7.29212952 C147.38511292 8.15898376 147.38511292 8.15898376 146.47312927 9.04335022 C145.51273743 9.94766785 145.51273743 9.94766785 144.53294373 10.87025452 C143.2342477 12.12749074 141.93735168 13.38658917 140.64231873 14.64759827 C140.02163513 15.24942932 139.40095154 15.85126038 138.76145935 16.47132874 C136.26352452 18.94363997 134.00077845 21.58473314 131.73216248 24.26478577 C129.77644285 26.48189035 127.69988482 28.54401364 125.59544373 30.62025452 C122.93274745 33.24732944 120.38279623 35.88754463 117.97044373 38.74525452 C113.78877867 43.63367986 109.16420329 48.0793856 104.59422302 52.5997467 C100.64317693 56.52355786 96.84056954 60.5001807 93.29466248 64.79994202 C92.09544373 66.12025452 92.09544373 66.12025452 90.09544373 67.12025452 C89.6369293 70.62279526 89.94273645 71.90183304 92.00169373 74.84681702 C92.85763123 75.80330139 93.71356873 76.75978577 94.59544373 77.74525452 C95.52407439 78.80657016 96.44981209 79.87042334 97.37278748 80.93666077 C98.06670593 81.73547668 98.06670593 81.73547668 98.77464294 82.5504303 C100.69903697 84.83764907 102.42781572 87.24659447 104.15794373 89.68275452 C107.58139277 94.48249924 111.24501158 99.02714752 115.00559998 103.56556702 C117.28427649 106.35108934 119.43708608 109.20771015 121.57591248 112.10072327 C125.27680359 117.01938832 129.19616992 121.77342906 133.06809998 126.55775452 C137.5234939 132.08492313 141.81822498 137.71090383 146.03684998 143.42103577 C147.68580662 145.5831402 149.37472023 147.56887242 151.22044373 149.55775452 C153.09544373 152.12025452 153.09544373 152.12025452 152.71263123 154.78041077 C152.50895935 155.5525592 152.30528748 156.32470764 152.09544373 157.12025452 C144.75013168 157.45180069 137.40676566 157.67828608 130.0556488 157.83436584 C127.55947294 157.89946381 125.06378755 157.98797762 122.56932068 158.10096741 C100.67551206 159.06732085 100.67551206 159.06732085 95.05149841 154.31141663 C92.14713753 151.20888505 90.12791396 147.83867733 88.09544373 144.12025452 C87.07921143 142.74689778 86.04481521 141.38612296 84.97044373 140.05775452 C84.00963959 138.74706217 83.05159281 137.43434659 82.09544373 136.12025452 C75.61718859 127.35584787 75.61718859 127.35584787 68.64622498 118.98744202 C65.23319896 114.87805553 62.19373601 110.46887288 59.09544373 106.12025452 C54.2264898 107.15181255 51.49829894 109.7537427 47.9750824 113.1856842 C45.36438071 117.26162059 45.51051812 120.5769934 45.52122498 125.32337952 C45.4999781 126.6409726 45.4999781 126.6409726 45.478302 127.98518372 C45.43648199 130.78033321 45.4211705 133.57483645 45.40794373 136.37025452 C45.378919 139.17965563 45.34444649 141.98889216 45.30545044 144.798172 C45.28290139 146.54423066 45.26711966 148.29039182 45.25860596 150.03657532 C45.20504553 156.01065271 45.20504553 156.01065271 44.09544373 157.12025452 C42.65254586 157.21321267 41.20514588 157.23771965 39.75926208 157.23377991 C38.3779435 157.23366661 38.3779435 157.23366661 36.96871948 157.23355103 C35.96768692 157.22838974 34.96665436 157.22322845 33.93528748 157.21791077 C32.91568436 157.21649582 31.89608124 157.21508087 30.84558105 157.21362305 C27.57467265 157.20800548 24.30383159 157.19545002 21.03294373 157.18275452 C18.82135617 157.17774178 16.60976754 157.17317848 14.3981781 157.16908264 C8.96391016 157.15803035 3.52968175 157.14127515 -1.90455627 157.12025452 C-3.28609701 154.35717304 -3.03051008 152.13346606 -3.03153992 149.04003906 C-3.03576965 147.09441322 -3.03576965 147.09441322 -3.04008484 145.10948181 C-3.03814036 143.66377244 -3.03609218 142.21806321 -3.03395081 140.77235413 C-3.03530517 139.25645913 -3.0370853 137.74056445 -3.03926086 136.22467041 C-3.04383063 132.1008781 -3.04204761 127.97711073 -3.03888178 123.85331798 C-3.03635629 119.54561338 -3.0386962 115.23791097 -3.04026794 110.9302063 C-3.04208889 103.69626989 -3.03968509 96.46234368 -3.03492737 89.22840881 C-3.02948284 80.85323773 -3.03124909 72.47809097 -3.03675377 64.10292047 C-3.04128459 56.923304 -3.04193567 49.74369488 -3.0393151 42.56407744 C-3.03775242 38.27105629 -3.03755838 33.97804659 -3.04085159 29.68502617 C-3.04372992 25.6508717 -3.04175534 21.61674877 -3.03595734 17.58259773 C-3.03462962 16.09785133 -3.03502406 14.6131023 -3.03722 13.12835693 C-3.03993095 11.11006766 -3.03593717 9.09177263 -3.03153992 7.07348633 C-3.03116289 5.9413568 -3.03078587 4.80922728 -3.03039742 3.64279079 C-2.85767171 0.18043464 -2.85767171 0.18043464 0 0 Z " fill="#FDFDFD" transform="translate(795.9045562744141,520.8797454833984)"/>
<path d="M0 0 C15.84 0 31.68 0 48 0 C57.17698049 18.35396097 57.17698049 18.35396097 59.7109375 24.4453125 C60.15269569 25.48716454 60.15269569 25.48716454 60.6033783 26.55006409 C61.21846066 28.00142635 61.83144471 29.45367973 62.44229126 30.90682983 C64.05556564 34.74352285 65.68577534 38.57300178 67.31640625 42.40234375 C67.79544655 43.52818626 67.79544655 43.52818626 68.28416443 44.67677307 C71.23410597 51.58934546 74.34251367 58.42367168 77.49462891 65.24609375 C81.0509901 72.99350816 84.29181174 80.86130539 87.5324707 88.74487305 C89.92129379 94.52089688 92.48577995 100.1041611 95.3828125 105.64453125 C98.24894567 111.59141142 100.6645044 117.73453085 103.16772461 123.84106445 C106.08541239 130.91898495 109.18031372 137.87318764 112.57568359 144.73510742 C114.22379003 148.11151485 115.72072741 151.21960274 116 155 C113.58741719 157.41258281 113.00410234 157.25840798 109.70556641 157.29052734 C108.8176944 157.30328705 107.92982239 157.31604675 107.01504517 157.32919312 C106.05359589 157.33141876 105.09214661 157.33364441 104.1015625 157.3359375 C103.11505707 157.3425943 102.12855164 157.3492511 101.1121521 157.35610962 C99.02237822 157.36624764 96.93257189 157.37092629 94.84277344 157.37060547 C91.64463878 157.37497318 88.44788978 157.41126599 85.25 157.44921875 C83.2213589 157.45508772 81.19271122 157.45905658 79.1640625 157.4609375 C78.20666168 157.47530853 77.24926086 157.48967957 76.2628479 157.50448608 C69.67416419 157.45914617 69.67416419 157.45914617 66.51220703 155.30566406 C64.87128198 152.80374347 63.71120434 150.4440544 62.640625 147.6484375 C62.24746094 146.63265625 61.85429687 145.616875 61.44921875 144.5703125 C61.05347656 143.51585937 60.65773438 142.46140625 60.25 141.375 C59.83878906 140.3128125 59.42757812 139.250625 59.00390625 138.15625 C56 130.31216258 56 130.31216258 56 128 C48.08113286 127.97685524 40.1622798 127.959074 32.24338722 127.94818783 C28.56654289 127.94296368 24.88972166 127.9358745 21.21289062 127.92456055 C17.6662104 127.91371507 14.11955243 127.90771963 10.5728569 127.90512276 C9.21803817 127.90327151 7.86322069 127.89965662 6.50841141 127.89426994 C4.61450635 127.88703762 2.72057902 127.88659176 0.82666016 127.88647461 C-0.25255707 127.884254 -1.33177429 127.88203339 -2.44369507 127.87974548 C-4.99077346 127.82676584 -4.99077346 127.82676584 -7 129 C-7.84641131 130.95862548 -8.6013964 132.95704487 -9.3125 134.96875 C-9.74820313 136.17917969 -10.18390625 137.38960937 -10.6328125 138.63671875 C-11.08937032 139.92418561 -11.54508964 141.21195011 -12 142.5 C-12.88772181 145.01352811 -13.78465051 147.52303796 -14.6875 150.03125 C-15.08324219 151.15080078 -15.47898438 152.27035156 -15.88671875 153.42382812 C-17 156 -17 156 -19 157 C-20.47554416 157.09462567 -21.95526341 157.12794177 -23.43383789 157.12939453 C-24.35141373 157.13254669 -25.26898956 157.13569885 -26.21437073 157.13894653 C-27.20710495 157.1369223 -28.19983917 157.13489807 -29.22265625 157.1328125 C-30.746381 157.13424759 -30.746381 157.13424759 -32.30088806 157.13571167 C-34.45034853 157.13639289 -36.59981105 157.13454261 -38.74926758 157.13037109 C-42.05229272 157.12501655 -45.35518221 157.13032088 -48.65820312 157.13671875 C-50.7421878 157.13605807 -52.82617239 157.13477711 -54.91015625 157.1328125 C-55.9049147 157.13483673 -56.89967316 157.13686096 -57.92457581 157.13894653 C-58.83899948 157.13579437 -59.75342316 157.13264221 -60.69555664 157.12939453 C-61.50448868 157.12859894 -62.31342072 157.12780334 -63.14686584 157.12698364 C-65 157 -65 157 -66 156 C-65.57670813 150.91417976 -64.31180642 146.92808549 -62.1875 142.3125 C-61.55688302 140.92004433 -60.92813469 139.52674157 -60.30078125 138.1328125 C-59.76445068 136.94606934 -59.76445068 136.94606934 -59.21728516 135.73535156 C-56.17524031 128.89959737 -53.28426983 121.99613205 -50.35229492 115.11254883 C-48.13547207 109.92417023 -45.90266947 104.75016124 -43.54296875 99.625 C-40.01361699 91.92159218 -36.82141459 84.07209746 -33.58129883 76.24389648 C-32.74285608 74.2201602 -31.90089481 72.19791411 -31.05859375 70.17578125 C-30.56673584 68.98895752 -30.07487793 67.80213379 -29.56811523 66.5793457 C-28.44700561 64.02032527 -27.29095175 61.55365203 -26.02734375 59.06835938 C-23.98224355 55.03279662 -22.21950749 50.91491328 -20.50390625 46.73046875 C-20.18848373 45.96881912 -19.87306122 45.20716949 -19.54808044 44.42243958 C-18.5501206 42.01192531 -17.5559703 39.59986767 -16.5625 37.1875 C-11.37396092 24.60456167 -6.09097562 12.18195124 0 0 Z M22 53 C19.77391494 58.17843128 17.55234085 63.35871564 15.33984375 68.54296875 C13.9995346 71.68076763 12.64688724 74.81102555 11.25390625 77.92578125 C10.57134766 79.47845703 10.57134766 79.47845703 9.875 81.0625 C9.48054688 81.94035156 9.08609375 82.81820312 8.6796875 83.72265625 C7.92088032 86.26509639 8.10149671 87.53764604 9 90 C15.12689827 90.82477477 21.20049892 91.10812978 27.375 91.125 C28.06464844 91.12951172 28.75429687 91.13402344 29.46484375 91.13867188 C32.78652101 91.12892135 35.82445464 91.02594542 39 90 C40.09586564 86.74425964 39.94624946 85.08125487 38.59375 81.9453125 C38.26503906 81.1716333 37.93632812 80.3979541 37.59765625 79.60083008 C37.23542969 78.78380615 36.87320313 77.96678223 36.5 77.125 C36.13777344 76.28670654 35.77554688 75.44841309 35.40234375 74.5847168 C32.19851392 67.25400251 28.70184742 60.09135146 25 53 C24.01 53 23.02 53 22 53 Z " fill="#FCFCFC" transform="translate(199,521)"/>
<path d="M0 0 C15.51 0 31.02 0 47 0 C50.41806011 6.83612023 53.52446007 13.49970993 56.31640625 20.56640625 C57.83406502 24.34290599 59.47335412 27.98353601 61.33984375 31.6015625 C63.43074226 35.71374202 65.24932646 39.90310004 66.97265625 44.1796875 C67.22546356 44.80566833 67.47827087 45.43164917 67.73873901 46.07659912 C68.78155273 48.66743296 69.81947936 51.26006464 70.84594727 53.85742188 C71.60831873 55.78110505 72.38329639 57.69931815 73.16015625 59.6171875 C73.83510132 61.31270752 73.83510132 61.31270752 74.52368164 63.04248047 C76.02029797 66.04066307 77.57829086 67.73164124 80 70 C81.26048371 72.45077807 82.3735197 74.84167241 83.4375 77.375 C83.76532471 78.13304932 84.09314941 78.89109863 84.4309082 79.67211914 C85.18645399 81.42145507 85.93767472 83.17266269 86.68554688 84.92529297 C88.47360577 89.10783638 90.28372035 93.28074676 92.09364319 97.45385742 C93.51315957 100.72695035 94.93113338 104.00067253 96.34350586 107.27685547 C99.48384931 114.55511763 102.69996485 121.79283851 106 129 C107.81039622 132.97101103 109.59914293 136.95093522 111.375 140.9375 C111.83777344 141.95134766 112.30054688 142.96519531 112.77734375 144.00976562 C113.20917969 144.98494141 113.64101563 145.96011719 114.0859375 146.96484375 C114.6744751 148.27376587 114.6744751 148.27376587 115.27490234 149.60913086 C116.08472768 152.27937311 115.7695591 153.38845604 115 156 C108.39844024 156.17762431 101.79749712 156.3001283 95.1940918 156.38452148 C92.94841486 156.41970392 90.70289802 156.46745869 88.45776367 156.52807617 C85.22795131 156.61309003 82.00025898 156.65271067 78.76953125 156.68359375 C77.76727005 156.71972275 76.76500885 156.75585175 75.7323761 156.79307556 C68.93304981 156.79689751 68.93304981 156.79689751 66.28581238 154.53594971 C64.96768016 152.74609242 63.95317145 151.00514548 63 149 C62.63092529 148.27925293 62.26185059 147.55850586 61.8815918 146.81591797 C61.65640869 146.21408691 61.43122559 145.61225586 61.19921875 144.9921875 C60.81733398 143.97705078 60.81733398 143.97705078 60.42773438 142.94140625 C60.06131836 141.91853516 60.06131836 141.91853516 59.6875 140.875 C59.42388672 140.18535156 59.16027344 139.49570312 58.88867188 138.78515625 C57.52559585 135.08183801 56.66922902 131.95386705 57 128 C56.01 128 55.02 128 54 128 C53.67 127.01 53.34 126.02 53 125 C52.25577286 125.0207811 51.51154572 125.04156219 50.74476624 125.06297302 C43.69807881 125.24624594 36.65481584 125.35626603 29.60607243 125.38603115 C25.98225418 125.40386494 22.36325743 125.44902797 18.7409668 125.55883789 C-4.68153765 126.24116591 -4.68153765 126.24116591 -10.17462158 122.53134155 C-13.85152772 118.54978516 -15.38011596 114.09125732 -17 109 C-18.48696737 106.43695743 -18.48696737 106.43695743 -20 104.4375 C-23.06164567 99.9396329 -25.99555047 95.36451194 -28.9296875 90.78295898 C-30.60054409 88.1748015 -32.28176493 85.5773526 -34 83 C-33.64700594 78.70839404 -32.3895021 75.10692899 -30.71484375 71.1640625 C-30.26689453 70.10058594 -29.81894531 69.03710938 -29.35742188 67.94140625 C-28.88884766 66.84699219 -28.42027344 65.75257813 -27.9375 64.625 C-27.46505859 63.50738281 -26.99261719 62.38976562 -26.50585938 61.23828125 C-25.3429918 58.48968515 -24.17421814 55.74376168 -23 53 C-22.34 53 -21.68 53 -21 53 C-20.88229248 52.29673584 -20.76458496 51.59347168 -20.64331055 50.86889648 C-19.94802138 47.76819706 -18.91461834 45.03656102 -17.70703125 42.09765625 C-17.24425781 40.96618164 -16.78148437 39.83470703 -16.3046875 38.66894531 C-15.56605469 36.88375488 -15.56605469 36.88375488 -14.8125 35.0625 C-14.31363281 33.84788086 -13.81476562 32.63326172 -13.30078125 31.38183594 C-9.94139834 23.22177236 -6.52519884 15.08987939 -3 7 C-2.01 4.69 -1.02 2.38 0 0 Z " fill="#FCFBFB" transform="translate(667,522)"/>
<path d="M0 0 C15.51 0 31.02 0 47 0 C48.28566729 2.57133459 48.12009778 4.397171 48.11352539 7.27587891 C48.11344986 8.3768692 48.11337433 9.4778595 48.11329651 10.61221313 C48.10813522 11.80494843 48.10297394 12.99768372 48.09765625 14.2265625 C48.0962413 15.44451508 48.09482635 16.66246765 48.09336853 17.91732788 C48.08775639 21.8199099 48.07520179 25.72243523 48.0625 29.625 C48.05748657 32.26562417 48.05292339 34.90624924 48.04882812 37.546875 C48.03778301 44.03126945 48.02103302 50.51563068 48 57 C48.66763367 56.99111755 49.33526733 56.98223511 50.02313232 56.9730835 C56.96585538 56.88465527 63.90841871 56.82428424 70.8515625 56.78027344 C73.44342546 56.76014625 76.03524296 56.73284184 78.62695312 56.69824219 C82.35037449 56.64977499 86.07319599 56.62704184 89.796875 56.609375 C91.53768341 56.57840729 91.53768341 56.57840729 93.31365967 56.54681396 C94.39447815 56.54651184 95.47529663 56.54620972 96.58886719 56.54589844 C98.01449982 56.53257477 98.01449982 56.53257477 99.46893311 56.51898193 C102.75763725 57.14398561 103.90456029 58.44901079 106 61 C107.32104492 63.43164062 107.32104492 63.43164062 108.48046875 66.15625 C109.13607788 67.67424194 109.13607788 67.67424194 109.80493164 69.22290039 C110.2611792 70.30434326 110.71742676 71.38578613 111.1875 72.5 C112.16842539 74.78031179 113.15020634 77.06025571 114.1328125 79.33984375 C114.61782227 80.47147949 115.10283203 81.60311523 115.60253906 82.76904297 C117.53083099 87.22729163 119.54479393 91.64423177 121.5625 96.0625 C128.98237925 112.44361831 135.95806747 129.0580946 142 146 C142.3815625 147.04929687 142.763125 148.09859375 143.15625 149.1796875 C144 152 144 152 144 156 C140.68647254 157.65676373 136.98659638 157.16312244 133.34375 157.16796875 C132.48567749 157.17129715 131.62760498 157.17462555 130.74353027 157.17805481 C128.92782122 157.18312138 127.11210284 157.18546322 125.29638672 157.18530273 C122.5112383 157.18749117 119.72648464 157.20565489 116.94140625 157.22460938 C115.17968886 157.2275429 113.41796958 157.22952797 111.65625 157.23046875 C110.40152893 157.24124702 110.40152893 157.24124702 109.12145996 157.25224304 C103.22882612 157.22882612 103.22882612 157.22882612 101 155 C100.75949097 152.55758667 100.75949097 152.55758667 100.77294922 149.44873047 C100.77310028 148.28767792 100.77325134 147.12662537 100.77340698 145.9303894 C100.78372955 144.67203278 100.79405212 143.41367615 100.8046875 142.1171875 C100.8075174 140.83264679 100.81034729 139.54810608 100.81326294 138.22463989 C100.82090191 134.80837233 100.84055248 131.39227463 100.8626709 127.97607422 C100.88312375 124.4905837 100.89237296 121.00506493 100.90234375 117.51953125 C100.92273729 110.67953744 100.9618823 103.84001019 101 97 C83.51 97.33 66.02 97.66 48 98 C48.02320313 102.09148437 48.04640625 106.18296875 48.0703125 110.3984375 C48.08317002 113.65618772 48.09401717 116.91393079 48.10350037 120.17169189 C48.11407164 123.61321078 48.12820344 127.05463152 48.15087891 130.49609375 C48.17672063 134.44269638 48.18646493 138.38925863 48.1953125 142.3359375 C48.20563507 143.57242035 48.21595764 144.8089032 48.22659302 146.08285522 C48.22681961 147.79440292 48.22681961 147.79440292 48.22705078 149.54052734 C48.231492 150.548685 48.23593323 151.55684265 48.24050903 152.59555054 C48 155 48 155 46 157 C44.0645752 157.25396729 44.0645752 157.25396729 41.67382812 157.25878906 C40.77950073 157.26509338 39.88517334 157.27139771 38.96374512 157.27789307 C37.51216003 157.27182037 37.51216003 157.27182037 36.03125 157.265625 C35.04000122 157.26753845 34.04875244 157.2694519 33.02746582 157.27142334 C30.92927802 157.27278585 28.83108181 157.26908482 26.73291016 157.26074219 C23.51315454 157.25004371 20.29395692 157.26063536 17.07421875 157.2734375 C15.03906126 157.27211592 13.00390412 157.26955355 10.96875 157.265625 C10.00102661 157.26967346 9.03330322 157.27372192 8.03625488 157.27789307 C6.69476379 157.26843658 6.69476379 157.26843658 5.32617188 157.25878906 C4.53722534 157.25719788 3.74827881 157.25560669 2.9354248 157.25396729 C1 157 1 157 -1 155 C-1.24888897 152.37003326 -1.24888897 152.37003326 -1.24723816 148.96447754 C-1.25143265 147.67725296 -1.25562714 146.39002838 -1.25994873 145.063797 C-1.25446481 143.62911912 -1.24878182 142.194442 -1.24291992 140.75976562 C-1.24399236 139.25534482 -1.24593046 137.75092442 -1.24867249 136.24650574 C-1.25353019 132.15360462 -1.24585364 128.0608121 -1.23571944 123.96792412 C-1.22695377 119.69138583 -1.2286961 115.4148511 -1.2290802 111.13830566 C-1.22814287 103.95562923 -1.21944968 96.77299498 -1.20581055 89.59033203 C-1.1900843 81.27766244 -1.18481241 72.96503906 -1.1855461 64.65235567 C-1.18615582 56.6668054 -1.18105552 48.68127023 -1.17275429 40.69572449 C-1.16921731 37.29225039 -1.16739045 33.88878163 -1.16686058 30.48530579 C-1.16585825 26.47986971 -1.15977065 22.47447266 -1.14969444 18.46904945 C-1.14676612 16.99601289 -1.14554474 15.52297184 -1.14612198 14.04993248 C-1.14661043 12.04512493 -1.1403553 10.04031906 -1.13371277 8.03552246 C-1.13203692 6.91168907 -1.13036108 5.78785568 -1.12863445 4.62996674 C-1 2 -1 2 0 0 Z " fill="#F8F7F8" transform="translate(329,521)"/>
<path d="M0 0 C19.8 0 39.6 0 60 0 C60.495 1.98 60.495 1.98 61 4 C61.99 4 62.98 4 64 4 C63.67 4.99 63.34 5.98 63 7 C63 6.34 63 5.68 63 5 C62.01 5 61.02 5 60 5 C59.91878906 5.64839844 59.83757813 6.29679688 59.75390625 6.96484375 C58.71854713 11.133103 56.83859786 14.72568881 54.9375 18.5625 C50.41608327 27.87554128 46.51306057 37.3704887 42.77001953 47.01855469 C41.8630748 49.35234144 40.935562 51.67754961 40 54 C39.67 53.34 39.34 52.68 39 52 C36.65941363 54.12780579 35.29299694 56.11562221 34 59 C30.40128385 54.86147643 27.98193179 50.47027299 25.5 45.625 C21.48404594 36.10599702 21.48404594 36.10599702 15 29 C14.31862681 27.0049624 13.65455936 25.00399513 13 23 C11.97029423 21.03347429 10.88417972 19.09568074 9.75 17.1875 C9.13511719 16.15238281 8.52023437 15.11726562 7.88671875 14.05078125 C5.7154336 10.53986261 3.43677969 7.12136217 1.06640625 3.7421875 C0 2 0 2 0 0 Z " fill="#BB1823" transform="translate(660,646)"/>
<path d="M0 0 C2.18545001 2.72128511 3.65341187 5.23010142 4.90234375 8.484375 C5.23556641 9.33773437 5.56878906 10.19109375 5.91210938 11.0703125 C6.25048828 11.95460938 6.58886719 12.83890625 6.9375 13.75 C9.09557561 19.3551752 11.32855951 24.80453613 14.07836914 30.14648438 C15.49007369 32.98559985 16.62134685 35.91402723 17.75 38.875 C18.17796875 39.98617187 18.6059375 41.09734375 19.046875 42.2421875 C20 45 20 45 20 47 C7.13 47 -5.74 47 -19 47 C-18.13965295 43.55861182 -17.09267735 40.4688957 -15.8203125 37.16796875 C-15.38589844 36.03939453 -14.95148437 34.91082031 -14.50390625 33.74804688 C-14.04886719 32.57306641 -13.59382812 31.39808594 -13.125 30.1875 C-12.45404297 28.44243164 -12.45404297 28.44243164 -11.76953125 26.66210938 C-9.60834878 21.06152295 -7.38899398 15.50670625 -5 10 C-4.67 9.01 -4.34 8.02 -4 7 C-3.34 7 -2.68 7 -2 7 C-1.855625 6.21625 -1.71125 5.4325 -1.5625 4.625 C-1 2 -1 2 0 0 Z " fill="#F11A22" transform="translate(690,566)"/>
<path d="M0 0 C4.8359375 1.671875 4.8359375 1.671875 6.3125 4.625 C6.6528125 5.800625 6.6528125 5.800625 7 7 C7.66 7 8.32 7 9 7 C11.1875 9.125 11.1875 9.125 13 12 C12.62831454 16.32131279 11.36461399 19.94120362 9.6796875 23.9140625 C9.22722656 25.00460937 8.77476562 26.09515625 8.30859375 27.21875 C7.34889433 29.49901674 6.38531829 31.77765561 5.41796875 34.0546875 C4.96808594 35.14265625 4.51820313 36.230625 4.0546875 37.3515625 C3.63687012 38.33979004 3.21905273 39.32801758 2.78857422 40.34619141 C1.50053164 44.68087339 3.06400925 47.38195339 5.0625 51.25 C5.42472656 51.95640625 5.78695312 52.6628125 6.16015625 53.390625 C6.43730469 53.92171875 6.71445312 54.4528125 7 55 C6.34 55 5.68 55 5 55 C5 54.34 5 53.68 5 53 C3.68 53.66 2.36 54.32 1 55 C1.29777344 54.14148438 1.29777344 54.14148438 1.6015625 53.265625 C2.66279946 47.23114034 -2.81992396 40.44017361 -6.046875 35.62890625 C-7 34 -7 34 -7 32 C-7.99 32 -8.98 32 -10 32 C-11.5302335 25.64364544 -10.69004218 22.52563763 -7.546875 16.875 C-5.70699247 13.45542034 -4.19200701 9.95165019 -2.6875 6.375 C-2.17574219 5.16585937 -1.66398438 3.95671875 -1.13671875 2.7109375 C-0.76160156 1.81632813 -0.38648438 0.92171875 0 0 Z " fill="#B71520" transform="translate(632,559)"/>
<path d="M0 0 C10.23 0 20.46 0 31 0 C32.125 6.75 32.125 6.75 30.12890625 10.7421875 C29.71962891 11.58007812 29.31035156 12.41796875 28.88867188 13.28125 C28.45103516 14.1371875 28.01339844 14.993125 27.5625 15.875 C27.12873047 16.75414062 26.69496094 17.63328125 26.24804688 18.5390625 C25.17925783 20.70013046 24.09645296 22.85287234 23 25 C22.01 25 21.02 25 20 25 C19.67 25.66 19.34 26.32 19 27 C18.67128906 26.41734375 18.34257813 25.8346875 18.00390625 25.234375 C12.77557286 16.22293858 6.49938686 8.12423357 0 0 Z " fill="#F41822" transform="translate(688,648)"/>
<path d="M0 0 C41.91 0 83.82 0 127 0 C127 1.32 127 2.64 127 4 C85.09 4 43.18 4 0 4 C0 2.68 0 1.36 0 0 Z " fill="#C91E2D" transform="translate(525,814)"/>
<path d="M0 0 C41.58 0 83.16 0 126 0 C126 0.99 126 1.98 126 3 C122.88034393 3.91555386 120.09546088 4.1235668 116.84942627 4.12025452 C115.80898666 4.12162918 114.76854706 4.12300385 113.69657898 4.12442017 C112.56081924 4.12082489 111.42505951 4.11722961 110.25488281 4.11352539 C109.05460953 4.11367142 107.85433624 4.11381744 106.61769104 4.1139679 C103.33082561 4.11339084 100.04400282 4.10837745 96.75714588 4.10139394 C93.32050067 4.0951403 89.88385461 4.09455501 86.44720459 4.09336853 C79.94141654 4.09026115 73.4356453 4.08205574 66.92986465 4.07201904 C59.52241818 4.0608395 52.11497091 4.05534281 44.7075181 4.05032361 C29.471669 4.03987265 14.23583667 4.02228467 -1 4 C-0.67 2.68 -0.34 1.36 0 0 Z " fill="#F8292F" transform="translate(706,396)"/>
<path d="M0 0 C5.31479641 6.26386719 8.90660469 13.59517949 12.75 20.8125 C13.16121094 21.57498047 13.57242187 22.33746094 13.99609375 23.12304688 C14.38410156 23.85201172 14.77210938 24.58097656 15.171875 25.33203125 C15.5234668 25.98921143 15.87505859 26.6463916 16.23730469 27.32348633 C17 29 17 29 17 31 C17.66 31 18.32 31 19 31 C19 31.66 19 32.32 19 33 C19.66 33 20.32 33 21 33 C21 32.34 21 31.68 21 31 C21.66 31 22.32 31 23 31 C23 32.32 23 33.64 23 35 C22.34 35 21.68 35 21 35 C21 35.99 21 36.98 21 38 C21.66 38.33 22.32 38.66 23 39 C23.33 39.99 23.66 40.98 24 42 C25.485 42.495 25.485 42.495 27 43 C26.9175 44.03125 26.835 45.0625 26.75 46.125 C27.04235778 50.65654566 28.30212378 52.42928148 31 56 C31.6937331 57.31945315 32.35841461 58.65441819 33 60 C33.36480469 60.7321875 33.72960937 61.464375 34.10546875 62.21875 C34.46253906 62.9715625 34.81960938 63.724375 35.1875 64.5 C35.55230469 65.2528125 35.91710937 66.005625 36.29296875 66.78125 C37.09761018 69.3063126 36.87823436 70.53870625 36 73 C33.28666893 69.68217091 31.5350942 66.18826614 29.70703125 62.3203125 C29.06968615 60.98436322 28.43231547 59.64842614 27.79492188 58.3125 C26.81081701 56.23610423 25.82849669 54.15887914 24.84741211 52.08105469 C20.80737949 43.54215203 16.53847316 35.25764866 11.78295898 27.09423828 C9.57287383 23.25874338 7.561327 19.35386602 5.625 15.375 C5.29628906 14.70855469 4.96757812 14.04210937 4.62890625 13.35546875 C3.74954197 11.57181894 2.87453516 9.78602252 2 8 C1.59523438 7.27039063 1.19046875 6.54078125 0.7734375 5.7890625 C0 4 0 4 0 0 Z " fill="#DA1C2A" transform="translate(367,444)"/>
<path d="M0 0 C0.66 0 1.32 0 2 0 C1.49287967 3.71888239 0.88391785 6.73454239 -1 10 C1.31 10 3.62 10 6 10 C6 10.66 6 11.32 6 12 C8.33075929 11.04134491 8.33075929 11.04134491 10 8 C10 8.66 10 9.32 10 10 C11.65 10 13.3 10 15 10 C14.37603297 11.72953968 13.75077872 13.458615 13.125 15.1875 C12.77695312 16.15042969 12.42890625 17.11335937 12.0703125 18.10546875 C11.09009512 20.75634859 10.06279566 23.3813098 9 26 C8.5978125 25.1028125 8.5978125 25.1028125 8.1875 24.1875 C7.1106021 21.95672092 7.1106021 21.95672092 5.375 20.375 C4.694375 19.694375 4.694375 19.694375 4 19 C4 18.34 4 17.68 4 17 C3.34 17 2.68 17 2 17 C1.525625 16.195625 1.05125 15.39125 0.5625 14.5625 C-0.79983672 11.7081924 -0.79983672 11.7081924 -4 11 C-3.49357808 6.64477147 -2.61588503 3.55760365 0 0 Z " fill="#F11722" transform="translate(637,549)"/>
<path d="M0 0 C-1.96158648 6.74295351 -4.76387804 12.86934803 -7.796875 19.17724609 C-11.52550045 26.98576915 -14.78382757 34.96961946 -18 43 C-18.99 43 -19.98 43 -21 43 C-20.67 42.01 -20.34 41.02 -20 40 C-19.34 40 -18.68 40 -18 40 C-18 37.36 -18 34.72 -18 32 C-17.34 32 -16.68 32 -16 32 C-16.33 30.02 -16.66 28.04 -17 26 C-15.68 26 -14.36 26 -13 26 C-12.9175 25.195625 -12.835 24.39125 -12.75 23.5625 C-11.3573 16.94717502 -8.07049096 10.98745737 -5 5 C-5.66 5 -6.32 5 -7 5 C-7 4.34 -7 3.68 -7 3 C-4.4385343 0.70351351 -3.52032428 0 0 0 Z " fill="#E62128" transform="translate(779,514)"/>
<path d="M0 0 C6.29676435 0.1614555 10.61793355 3.78347829 15 8 C15 8.66 15 9.32 15 10 C14.34 10 13.68 10 13 10 C13.33 12.97 13.66 15.94 14 19 C9.8217297 16.82320883 7.48799655 14.43938451 4.75 10.625 C4.06421875 9.68914062 3.3784375 8.75328125 2.671875 7.7890625 C1.04696028 5.07834028 0.38437236 3.10889406 0 0 Z " fill="#CA1F2C" transform="translate(253,266)"/>
<path d="M0 0 C5.85460109 3.25492793 10.11714099 7.78713406 14.8125 12.5 C16.13797852 13.80130859 16.13797852 13.80130859 17.49023438 15.12890625 C18.32490234 15.96292969 19.15957031 16.79695313 20.01953125 17.65625 C20.78370361 18.41744141 21.54787598 19.17863281 22.33520508 19.96289062 C24 22 24 22 24 25 C20.84164893 23.60249952 18.67727175 21.94801766 16.25 19.5 C15.32960938 18.58734375 15.32960938 18.58734375 14.390625 17.65625 C13 16 13 16 13 14 C12.34 14 11.68 14 11 14 C11 13.34 11 12.68 11 12 C10.113125 11.7525 9.22625 11.505 8.3125 11.25 C4.80390444 9.92600168 2.64693296 8.64693296 0 6 C-0.875 3.3125 -0.875 3.3125 -1 1 C-0.67 0.67 -0.34 0.34 0 0 Z " fill="#F62532" transform="translate(476,414)"/>
<path d="M0 0 C2.21224819 3.31837229 2.35715143 4.16062208 2 8 C1.39072482 10.01822402 0.73519522 12.02416285 0 14 C-0.66 14 -1.32 14 -2 14 C-5.465 21.425 -5.465 21.425 -9 29 C-9.99 28.34 -10.98 27.68 -12 27 C-10.56554407 23.62369826 -9.12689105 20.24920041 -7.6875 16.875 C-7.28337891 15.92367188 -6.87925781 14.97234375 -6.46289062 13.9921875 C-4.43840726 9.25193377 -2.37908796 4.57339238 0 0 Z " fill="#F31C2E" transform="translate(696,414)"/>
<path d="M0 0 C0.66 0 1.32 0 2 0 C3.65 3.63 5.3 7.26 7 11 C7.66 11 8.32 11 9 11 C9.33 9.68 9.66 8.36 10 7 C10.99 7.33 11.98 7.66 13 8 C11.14285714 15.57142857 11.14285714 15.57142857 8 18 C5 17 5 17 3.61328125 14.453125 C3.18402344 13.39609375 2.75476563 12.3390625 2.3125 11.25 C1.87550781 10.20328125 1.43851563 9.1565625 0.98828125 8.078125 C0.05025758 5.1565335 -0.20805392 3.03646256 0 0 Z " fill="#F41E2D" transform="translate(667,736)"/>
<path d="M0 0 C0.66 0 1.32 0 2 0 C1.51460283 5.91659789 0.27765596 10.34161086 -2.375 15.625 C-2.83132813 16.56859375 -2.83132813 16.56859375 -3.296875 17.53125 C-4.18510305 19.36084796 -5.08925729 21.18152032 -6 23 C-6.85464844 24.71316406 -6.85464844 24.71316406 -7.7265625 26.4609375 C-8.14679687 27.29882812 -8.56703125 28.13671875 -9 29 C-10.32 28.34 -11.64 27.68 -13 27 C-12.67 26.34 -12.34 25.68 -12 25 C-11.34 25 -10.68 25 -10 25 C-9.41992188 23.42412109 -9.41992188 23.42412109 -8.828125 21.81640625 C-6.09575622 14.43637481 -3.31630019 7.14280041 0 0 Z " fill="#F52D37" transform="translate(755,561)"/>
<path d="M0 0 C1.72265625 0.1171875 1.72265625 0.1171875 4 1 C5.63657745 3.02010454 7.03934089 4.95175162 8.4375 7.125 C10.8894606 10.82789917 13.33426309 14.49226683 16.0625 18 C18.0430096 21.06659551 18.53996602 22.43622427 18 26 C14.51668565 22.98112756 13.20842856 20.43090471 12 16 C11.34 16 10.68 16 10 16 C8.4921875 14.1015625 8.4921875 14.1015625 6.875 11.625 C6.33617187 10.81289063 5.79734375 10.00078125 5.2421875 9.1640625 C4 7 4 7 4 5 C3.34 5 2.68 5 2 5 C1.34 3.35 0.68 1.7 0 0 Z " fill="#EC2330" transform="translate(603,562)"/>
<path d="M0 0 C0.33 0 0.66 0 1 0 C1 2.64 1 5.28 1 8 C16.84 8.495 16.84 8.495 33 9 C32.505 4.545 32.505 4.545 32 0 C34 3 34 3 36 10 C23.13 10 10.26 10 -3 10 C-2.1469752 6.5879008 -1.13357275 3.32514673 0 0 Z " fill="#C9282B" transform="translate(674,603)"/>
<path d="M0 0 C0.268125 0.598125 0.53625 1.19625 0.8125 1.8125 C1.86096998 4.01487207 1.86096998 4.01487207 3.48754883 5.40405273 C6.01692664 8.0730669 6.67608724 11.60658511 7.6875 15.0625 C7.91244141 15.79533203 8.13738281 16.52816406 8.36914062 17.28320312 C10 22.68139723 10 22.68139723 10 25 C9.01 25 8.02 25 7 25 C5.81704967 21.96442001 4.65664731 18.92068907 3.5 15.875 C3.16613281 15.0190625 2.83226562 14.163125 2.48828125 13.28125 C0.76140606 8.6997444 -0.45737699 4.9821422 0 0 Z " fill="#D11728" transform="translate(486,704)"/>
<path d="M0 0 C4.35062628 0.36316983 6.33315291 1.8347148 9.3125 4.9375 C10.00988281 5.64777344 10.70726562 6.35804688 11.42578125 7.08984375 C13 9 13 9 13 11 C13.99 11.33 14.98 11.66 16 12 C16 12.99 16 13.98 16 15 C15.34 15 14.68 15 14 15 C14 14.34 14 13.68 14 13 C11.60931266 11.89363605 11.60931266 11.89363605 9 11 C8.01 11.495 8.01 11.495 7 12 C7 11.34 7 10.68 7 10 C6.34 9.67 5.68 9.34 5 9 C4.855625 8.34 4.71125 7.68 4.5625 7 C4.376875 6.34 4.19125 5.68 4 5 C3.01 4.67 2.02 4.34 1 4 C1 3.34 1 2.68 1 2 C0.34 1.67 -0.32 1.34 -1 1 C-0.67 0.67 -0.34 0.34 0 0 Z " fill="#D11623" transform="translate(347,337)"/>
<path d="M0 0 C2.47524858 0.36137852 3.66135009 0.54559137 5.18847656 2.59472656 C5.50268555 3.26987305 5.81689453 3.94501953 6.140625 4.640625 C6.48867188 5.38183594 6.83671875 6.12304688 7.1953125 6.88671875 C7.54335938 7.66660156 7.89140625 8.44648437 8.25 9.25 C8.61351562 10.01441406 8.97703125 10.77882813 9.3515625 11.56640625 C11.1494767 15.47991123 12.52862494 18.59479213 12 23 C11.67 22.01 11.34 21.02 11 20 C10.34 20 9.68 20 9 20 C8.67 18.35 8.34 16.7 8 15 C7.01 15 6.02 15 5 15 C4.9175 14.34 4.835 13.68 4.75 13 C3.89838944 9.59355775 2.4943838 6.84897767 0.83984375 3.76953125 C0 2 0 2 0 0 Z " fill="#D91929" transform="translate(583,660)"/>
<path d="M0 0 C-1.99613268 6.7186905 -4.7291421 12.80734808 -8 19 C-8.66 19 -9.32 19 -10 19 C-10.33 19.66 -10.66 20.32 -11 21 C-10.28911991 17.81584958 -9.2264695 14.89608297 -8 11.875 C-7.649375 11.00617187 -7.29875 10.13734375 -6.9375 9.2421875 C-6.33781649 7.80794445 -5.69522276 6.39044553 -5 5 C-5.66 5 -6.32 5 -7 5 C-7 4.34 -7 3.68 -7 3 C-4.4385343 0.70351351 -3.52032428 0 0 0 Z " fill="#F52B39" transform="translate(779,514)"/>
<path d="M0 0 C0.66 0 1.32 0 2 0 C2 1.65 2 3.3 2 5 C1.34 5 0.68 5 0 5 C0.309375 5.928125 0.309375 5.928125 0.625 6.875 C0.74875 7.57625 0.8725 8.2775 1 9 C0.34 9.66 -0.32 10.32 -1 11 C1.21689819 16.06398064 3.47638811 21.07895682 6 26 C5.34 26 4.68 26 4 26 C4 25.34 4 24.68 4 24 C2.02 24.99 2.02 24.99 0 26 C0.20109375 25.43023438 0.4021875 24.86046875 0.609375 24.2734375 C1.09881621 21.42488965 0.49909709 20.20465703 -0.75 17.625 C-1.12125 16.84511719 -1.4925 16.06523438 -1.875 15.26171875 C-2.431875 14.14216797 -2.431875 14.14216797 -3 13 C-3.5775 11.824375 -4.155 10.64875 -4.75 9.4375 C-5.1625 8.633125 -5.575 7.82875 -6 7 C-5.01 7 -4.02 7 -3 7 C-2.01 4.69 -1.02 2.38 0 0 Z " fill="#C21A25" transform="translate(633,588)"/>
<path d="M0 0 C0.33 0.66 0.66 1.32 1 2 C2.65 2 4.3 2 6 2 C5.37603297 3.72953968 4.75077872 5.458615 4.125 7.1875 C3.77695312 8.15042969 3.42890625 9.11335937 3.0703125 10.10546875 C2.09009512 12.75634859 1.06279566 15.3813098 0 18 C-2.08876406 14.61476169 -2.12925805 12.34945379 -1.6875 8.4375 C-1.58824219 7.48746094 -1.48898437 6.53742187 -1.38671875 5.55859375 C-1 3 -1 3 0 0 Z " fill="#E3252A" transform="translate(646,557)"/>
<path d="M0 0 C1.36420006 4.09260018 -0.2335485 6.47012659 -1.9375 10.1875 C-2.22818359 10.84169922 -2.51886719 11.49589844 -2.81835938 12.16992188 C-3.53695343 13.78381344 -4.2673588 15.39243655 -5 17 C-5.33 17 -5.66 17 -6 17 C-6 15.35 -6 13.7 -6 12 C-6.33 12.33 -6.66 12.66 -7 13 C-7.33 13 -7.66 13 -8 13 C-8 9.7 -8 6.4 -8 3 C-7.34 3 -6.68 3 -6 3 C-6 3.66 -6 4.32 -6 5 C-5.38125 4.505 -4.7625 4.01 -4.125 3.5 C-2 2 -2 2 0 2 C0 1.34 0 0.68 0 0 Z " fill="#E61E27" transform="translate(822,415)"/>
<path d="M0 0 C3.81212863 3.57136262 6.60613141 7.14746158 9.375 11.625 C9.74238281 12.19734375 10.10976563 12.7696875 10.48828125 13.359375 C11.5234375 15.0390625 11.5234375 15.0390625 13 18 C12.67 18.99 12.34 19.98 12 21 C8.91946881 17.2183824 6.00697605 13.35223191 3.1875 9.375 C2.55811523 8.51648438 2.55811523 8.51648438 1.91601562 7.640625 C0.8625329 6.14804651 -0.07817725 4.5772949 -1 3 C-0.67 2.01 -0.34 1.02 0 0 Z " fill="#DB1F33" transform="translate(483,488)"/>
<path d="M0 0 C0.66 0 1.32 0 2 0 C2.66 0.99 3.32 1.98 4 3 C4.66 2.67 5.32 2.34 6 2 C6 2.66 6 3.32 6 4 C7.32 3.34 8.64 2.68 10 2 C10 3.32 10 4.64 10 6 C9.34 6 8.68 6 8 6 C8.33 8.31 8.66 10.62 9 13 C6 13 6 13 4.6484375 11.6796875 C1.90945181 7.79805747 0.35639237 4.87069569 0 0 Z " fill="#C91827" transform="translate(342,401)"/>
<path d="M0 0 C0.66 0 1.32 0 2 0 C2 1.65 2 3.3 2 5 C2.99 5 3.98 5 5 5 C5.66 8.3 6.32 11.6 7 15 C7.66 15 8.32 15 9 15 C9.33820166 16.5823006 9.67035939 18.16589375 10 19.75 C10.185625 20.63171875 10.37125 21.5134375 10.5625 22.421875 C11 25 11 25 11 29 C9.68 28.67 8.36 28.34 7 28 C7.66 28 8.32 28 9 28 C7.06954101 20.95551806 4.62161562 14.16264721 1.98193359 7.359375 C0 2.20409972 0 2.20409972 0 0 Z " fill="#B1797E" transform="translate(464,649)"/>
<path d="M0 0 C6.9616877 2.83624314 11.50722028 9.59056918 15 16 C15 16.99 15 17.98 15 19 C7.93609746 16.64536582 3.40689427 6.38792675 0 0 Z " fill="#F9252D" transform="translate(575,524)"/>
<path d="M0 0 C3.27896893 0.25453183 4.07325928 1.08376061 6.2890625 3.6171875 C7.07846488 4.69533103 7.85682483 5.78163067 8.625 6.875 C9.01945312 7.41769531 9.41390625 7.96039063 9.8203125 8.51953125 C15 15.67659945 15 15.67659945 15 20 C14.34 20 13.68 20 13 20 C13 19.34 13 18.68 13 18 C12.34 18 11.68 18 11 18 C10.67 17.030625 10.34 16.06125 10 15.0625 C8.11990278 10.56860908 4.97515843 7.40462531 1.64453125 3.91796875 C0 2 0 2 0 0 Z " fill="#DB1929" transform="translate(464,465)"/>
<path d="M0 0 C0.99 0 1.98 0 3 0 C4.25664978 2.90600261 5 4.79604584 5 8 C5.99 8 6.98 8 8 8 C8 10.97 8 13.94 8 17 C7.01 16.67 6.02 16.34 5 16 C3.95590957 13.67359006 3.10309582 11.47250358 2.3125 9.0625 C2.08755859 8.41603516 1.86261719 7.76957031 1.63085938 7.10351562 C0 2.32990597 0 2.32990597 0 0 Z " fill="#D81727" transform="translate(494,730)"/>
<path d="M0 0 C0.33 0.66 0.66 1.32 1 2 C1.66 2 2.32 2 3 2 C3 1.34 3 0.68 3 0 C3.66 0 4.32 0 5 0 C5 1.32 5 2.64 5 4 C4.34 4 3.68 4 3 4 C3 4.99 3 5.98 3 7 C3.66 7.33 4.32 7.66 5 8 C5.33 8.99 5.66 9.98 6 11 C6.99 11.33 7.98 11.66 9 12 C8.34 14.31 7.68 16.62 7 19 C4.66635648 16.07096942 2.95039164 13.11431797 1.3125 9.75 C0.65701172 8.41195313 0.65701172 8.41195313 -0.01171875 7.046875 C-0.33785156 6.37140625 -0.66398437 5.6959375 -1 5 C-0.34 4.67 0.32 4.34 1 4 C0.67 2.68 0.34 1.36 0 0 Z " fill="#D21222" transform="translate(385,475)"/>
<path d="M0 0 C4.95307054 1.16542836 6.97441595 4.1342885 9.86328125 8.02734375 C11 10 11 10 11 13 C8 12 8 12 6.5 10.4375 C4.98527194 8.65404732 4.98527194 8.65404732 2 9 C2 7.35 2 5.7 2 4 C1.34 4 0.68 4 0 4 C0 2.68 0 1.36 0 0 Z " fill="#CD1623" transform="translate(422,413)"/>
<path d="M0 0 C3 1 3 1 4.38671875 3.765625 C4.81597656 4.91546875 5.24523437 6.0653125 5.6875 7.25 C6.12449219 8.38953125 6.56148437 9.5290625 7.01171875 10.703125 C7.91164843 13.70526195 8.21552171 15.90114731 8 19 C7.34 19 6.68 19 6 19 C5.34 16.69 4.68 14.38 4 12 C3.34 12 2.68 12 2 12 C1.34 8.04 0.68 4.08 0 0 Z " fill="#D81829" transform="translate(635,775)"/>
<path d="M0 0 C0.66 0 1.32 0 2 0 C2.59249736 4.59185456 0.92014208 7.7888101 -1.02734375 11.81640625 C-1.94378625 13.87380127 -2.52682909 15.80349085 -3 18 C-3.66 18 -4.32 18 -5 18 C-5 18.66 -5 19.32 -5 20 C-5.66 20 -6.32 20 -7 20 C-6.41161801 15.15888235 -4.92346884 11.03928805 -2.9375 6.625 C-2.65583984 5.98433594 -2.37417969 5.34367188 -2.08398438 4.68359375 C-1.39540579 3.11970341 -0.69855289 1.55946059 0 0 Z " fill="#CB202D" transform="translate(629,566)"/>
<path d="M0 0 C0.33 0.66 0.66 1.32 1 2 C1.99 1.67 2.98 1.34 4 1 C7 6.75 7 6.75 7 9 C7.66 9 8.32 9 9 9 C12.11450382 13.15267176 12.11450382 13.15267176 11.6875 16.3125 C11.460625 16.869375 11.23375 17.42625 11 18 C7.87376931 15.07434606 5.5477878 12.04620519 3.25 8.4375 C2.63640625 7.48746094 2.0228125 6.53742188 1.390625 5.55859375 C0 3 0 3 0 0 Z " fill="#CD192C" transform="translate(278,301)"/>
<path d="M0 0 C0.66 0 1.32 0 2 0 C2.99 2.31 3.98 4.62 5 7 C5.66 7 6.32 7 7 7 C7.54372951 10.05847848 8 12.88772805 8 16 C5 15 5 15 3.61328125 12.890625 C3.18402344 12.01921875 2.75476563 11.1478125 2.3125 10.25 C1.87550781 9.38890625 1.43851563 8.5278125 0.98828125 7.640625 C-0.04127438 4.88971748 -0.19360389 2.90929095 0 0 Z " fill="#F81F2C" transform="translate(648,694)"/>
<path d="M0 0 C4.18196504 1.49096145 5.33486662 3.8616989 7.25 7.75 C7.77078125 8.77609375 8.2915625 9.8021875 8.828125 10.859375 C10.05412211 14.14504726 10.22884491 16.5257182 10 20 C7.20356382 16.57544124 5.25995711 12.81870229 3.3125 8.875 C2.83200195 7.92560547 2.83200195 7.92560547 2.34179688 6.95703125 C0 2.25346482 0 2.25346482 0 0 Z " fill="#D7212E" transform="translate(559,613)"/>
<path d="M0 0 C3.55363629 2.36909086 4.08860158 3.91848613 5.6875 7.8125 C6.12449219 8.85019531 6.56148437 9.88789062 7.01171875 10.95703125 C7.95622926 13.86522766 8.20696847 15.97378535 8 19 C7.34 19 6.68 19 6 19 C0.44419134 6.51480638 0.44419134 6.51480638 0 0 Z " fill="#D51825" transform="translate(616,728)"/>
<path d="M0 0 C3.51799762 1.95444312 6.39208869 3.90914215 9 7 C9 7.99 9 8.98 9 10 C2.58374793 8.54726368 2.58374793 8.54726368 0 6.125 C-1 4 -1 4 -0.6875 1.75 C-0.460625 1.1725 -0.23375 0.595 0 0 Z " fill="#E62D40" transform="translate(476,414)"/>
<path d="M0 0 C4.95247005 1.23811751 5.5042861 2.5805826 8.25 6.75 C8.95640625 7.79671875 9.6628125 8.8434375 10.390625 9.921875 C12.0058851 13.01125597 12.37896029 14.58935737 12 18 C11.67 17.34 11.34 16.68 11 16 C10.34 16 9.68 16 9 16 C6 10.25 6 10.25 6 8 C5.34 8 4.68 8 4 8 C2.68 5.36 1.36 2.72 0 0 Z " fill="#C51B2F" transform="translate(505,524)"/>
<path d="M0 0 C0.66 0 1.32 0 2 0 C0.43551329 5.6143991 -1.16395187 10.86810338 -4 16 C-4.99 15.67 -5.98 15.34 -7 15 C-2.66666667 4 -2.66666667 4 0 0 Z " fill="#D81C2E" transform="translate(708,673)"/>
<path d="M0 0 C2.475 0.99 2.475 0.99 5 2 C4.979375 2.9075 4.95875 3.815 4.9375 4.75 C4.9889755 7.42672588 5.2215017 9.46988052 6 12 C2.49285949 10.10424837 0.05538941 8.46170848 -2 5 C-2 4.01 -2 3.02 -2 2 C-1.34 2 -0.68 2 0 2 C0 1.34 0 0.68 0 0 Z " fill="#D01724" transform="translate(261,273)"/>
<path d="M0 0 C0.66 0 1.32 0 2 0 C2 1.32 2 2.64 2 4 C2.66 4 3.32 4 4 4 C4 5.32 4 6.64 4 8 C4.66 8 5.32 8 6 8 C6 7.34 6 6.68 6 6 C6.66 6 7.32 6 8 6 C8.66 6.66 9.32 7.32 10 8 C9.7578125 10.1640625 9.7578125 10.1640625 9.125 12.625 C8.92132812 13.44226563 8.71765625 14.25953125 8.5078125 15.1015625 C8.25644531 16.04128906 8.25644531 16.04128906 8 17 C5.44006232 14.44006232 4.38152865 11.78961812 2.875 8.5 C2.33617187 7.3346875 1.79734375 6.169375 1.2421875 4.96875 C0 2 0 2 0 0 Z " fill="#DD2D33" transform="translate(722,540)"/>
<path d="M0 0 C1.14721836 3.78662284 0.5429649 5.36949436 -1 9 C-1 10.32 -1 11.64 -1 13 C-1.66 13 -2.32 13 -3 13 C-3.0825 13.515625 -3.165 14.03125 -3.25 14.5625 C-4.32140225 18.04455732 -6.13523605 20.87200885 -8 24 C-9 22 -9 22 -8.28735352 19.75341797 C-7.90506592 18.84221191 -7.52277832 17.93100586 -7.12890625 16.9921875 C-6.51499023 15.51298828 -6.51499023 15.51298828 -5.88867188 14.00390625 C-5.45103516 12.97136719 -5.01339844 11.93882812 -4.5625 10.875 C-3.9118457 9.31458984 -3.9118457 9.31458984 -3.24804688 7.72265625 C-2.17224578 5.14546243 -1.08930622 2.57150805 0 0 Z " fill="#EFCFD0" transform="translate(663,531)"/>
<path d="M0 0 C0.33 0.66 0.66 1.32 1 2 C0.09176973 4.43557572 -0.86828071 6.76195517 -1.9375 9.125 C-2.22818359 9.78371094 -2.51886719 10.44242188 -2.81835938 11.12109375 C-3.53860198 12.75049505 -4.26841143 14.37566132 -5 16 C-5.99 16 -6.98 16 -8 16 C-6.36866728 10.79361899 -4.7336592 5.75418991 -2 1 C-1.34 0.67 -0.68 0.34 0 0 Z " fill="#F62330" transform="translate(657,507)"/>
<path d="M0 0 C0.99 0.33 1.98 0.66 3 1 C3.33 2.98 3.66 4.96 4 7 C4.99 7 5.98 7 7 7 C7.33 9.31 7.66 11.62 8 14 C4.42114601 12.80704867 3.81865091 11.75532938 1.75 8.6875 C1.20859375 7.90761719 0.6671875 7.12773438 0.109375 6.32421875 C-1 4 -1 4 -0.671875 1.70703125 C-0.45015625 1.14371094 -0.2284375 0.58039062 0 0 Z " fill="#F7202E" transform="translate(558,533)"/>
<path d="M0 0 C4.54278036 3.59849455 8.12260408 6.93578319 11 12 C11 12.66 11 13.32 11 14 C9.0625 13.6875 9.0625 13.6875 7 13 C6.67 12.01 6.34 11.02 6 10 C5.34 9.67 4.68 9.34 4 9 C4 8.34 4 7.68 4 7 C3.34 7 2.68 7 2 7 C0.3125 4.625 0.3125 4.625 -1 2 C-0.67 1.34 -0.34 0.68 0 0 Z " fill="#D81A2B" transform="translate(441,434)"/>
<path d="M0 0 C1.33897583 0.95043374 2.67105427 1.91059147 4 2.875 C5.11375 3.67550781 5.11375 3.67550781 6.25 4.4921875 C6.8275 4.98976563 7.405 5.48734375 8 6 C8 6.66 8 7.32 8 8 C8.66 8 9.32 8 10 8 C10 8.66 10 9.32 10 10 C9.34 10 8.68 10 8 10 C7.67 11.98 7.34 13.96 7 16 C6.34 15.67 5.68 15.34 5 15 C5.22558594 14.42378906 5.45117188 13.84757812 5.68359375 13.25390625 C6.24934607 10.93452451 6.24934607 10.93452451 4.78515625 8.96484375 C4.21667969 8.29582031 3.64820313 7.62679688 3.0625 6.9375 C0 3.30296128 0 3.30296128 0 0 Z " fill="#F5171F" transform="translate(492,433)"/>
<path d="M0 0 C2.85637299 5.27330399 5.57228292 10.89564881 5 17 C4.34 17 3.68 17 3 17 C2.32320342 15.274773 1.65898 13.54461061 1 11.8125 C0.443125 10.36810547 0.443125 10.36810547 -0.125 8.89453125 C-0.98130906 6.0618303 -1.25028745 3.93566326 -1 1 C-0.67 0.67 -0.34 0.34 0 0 Z " fill="#D21A2B" transform="translate(509,764)"/>
<path d="M0 0 C1.32 0.33 2.64 0.66 4 1 C4.96661363 4.12180401 4.98988909 6.52083795 4.5625 9.75 C4.46066406 10.54921875 4.35882813 11.3484375 4.25390625 12.171875 C4.12822266 13.07679688 4.12822266 13.07679688 4 14 C3.01 14 2.02 14 1 14 C0.67 12.68 0.34 11.36 0 10 C0.66 10 1.32 10 2 10 C1.505 8.63875 1.505 8.63875 1 7.25 C0 4 0 4 0 0 Z " fill="#BD1F32" transform="translate(473,668)"/>
<path d="M0 0 C0.66 0 1.32 0 2 0 C3.00460531 2.12282669 4.00355602 4.24833021 5 6.375 C5.556875 7.55835938 6.11375 8.74171875 6.6875 9.9609375 C8 13 8 13 8 15 C7.01 15 6.02 15 5 15 C4.15415002 13.44424022 3.32381601 11.8800388 2.5 10.3125 C2.0359375 9.44238281 1.571875 8.57226562 1.09375 7.67578125 C-0.04818792 4.88211171 -0.21504208 2.98370887 0 0 Z " fill="#DA1C29" transform="translate(417,544)"/>
<path d="M0 0 C1.32 0.33 2.64 0.66 4 1 C4 2.32 4 3.64 4 5 C3.01 5.33 2.02 5.66 1 6 C-0.71567661 9.50294871 -0.71567661 9.50294871 -2 13 C-2.66 13 -3.32 13 -4 13 C-3.55966813 7.80408388 -3.11696661 4.33664919 0 0 Z " fill="#F71F2D" transform="translate(671,472)"/>
<path d="M0 0 C3.93311164 2.94983373 4.73560008 3.57460027 6 8 C6.125 10.8125 6.125 10.8125 6 13 C4.35 12.67 2.7 12.34 1 12 C0.67 8.04 0.34 4.08 0 0 Z " fill="#D91724" transform="translate(596,684)"/>
<path d="M0 0 C3.81926912 4.51368168 5.34720628 9.09749318 5 15 C4.34 15 3.68 15 3 15 C1.35 10.71 -0.3 6.42 -2 2 C-1.34 1.34 -0.68 0.68 0 0 Z " fill="#D81C2F" transform="translate(477,681)"/>
<path d="M0 0 C0.99 0 1.98 0 3 0 C5.296875 2.30078125 5.296875 2.30078125 7.75 5.3125 C8.56984375 6.29863281 9.3896875 7.28476562 10.234375 8.30078125 C10.81703125 9.19152344 11.3996875 10.08226562 12 11 C11.67 11.99 11.34 12.98 11 14 C9.62437146 12.71034824 8.29233607 11.37310707 7 10 C7 9.34 7 8.68 7 8 C6.01 8 5.02 8 4 8 C0 2.74285714 0 2.74285714 0 0 Z " fill="#EE222A" transform="translate(544,486)"/>
<path d="M0 0 C0.66 0 1.32 0 2 0 C-1.09990301 10.09117362 -1.09990301 10.09117362 -4 14 C-4.66 14 -5.32 14 -6 14 C-5.58742287 8.49897163 -3.45277325 4.23798336 0 0 Z " fill="#EA3135" transform="translate(717,654)"/>
<path d="M0 0 C0.33 0 0.66 0 1 0 C0.65697965 5.98511371 0.17692157 10.75117306 -3 16 C-3.99 16 -4.98 16 -6 16 C-4.25192871 10.53262809 -2.34205919 5.24175152 0 0 Z " fill="#EF232A" transform="translate(646,528)"/>
<path d="M0 0 C0.66 0 1.32 0 2 0 C3.69140625 2.08203125 3.69140625 2.08203125 5.5625 4.8125 C6.18253906 5.70582031 6.80257813 6.59914063 7.44140625 7.51953125 C9 10 9 10 10 13 C7.32992218 12.63641494 6.27480111 12.35223126 4.5859375 10.1875 C4.18632812 9.465625 3.78671875 8.74375 3.375 8 C1.76772106 4.90833391 1.76772106 4.90833391 -1 3 C-0.67 2.01 -0.34 1.02 0 0 Z " fill="#D41C28" transform="translate(497,510)"/>
<path d="M0 0 C1.32 0 2.64 0 4 0 C3.67 1.98 3.34 3.96 3 6 C3.66 6 4.32 6 5 6 C5 6.66 5 7.32 5 8 C5.66 8.33 6.32 8.66 7 9 C6.01 9.99 5.02 10.98 4 12 C1 7.25 1 7.25 1 5 C0.34 5 -0.32 5 -1 5 C-0.67 3.35 -0.34 1.7 0 0 Z " fill="#F61D25" transform="translate(540,504)"/>
<path d="M0 0 C1.35304209 4.05912626 0.15216503 5.77149591 -1.4375 9.6875 C-1.91058594 10.86699219 -2.38367188 12.04648437 -2.87109375 13.26171875 C-3.24363281 14.16535156 -3.61617187 15.06898438 -4 16 C-4.66 16 -5.32 16 -6 16 C-6.33 14.68 -6.66 13.36 -7 12 C-6.01 11.67 -5.02 11.34 -4 11 C-4.33 9.68 -4.66 8.36 -5 7 C-4.34 7 -3.68 7 -3 7 C-2.67 5.35 -2.34 3.7 -2 2 C-1.34 2 -0.68 2 0 2 C0 1.34 0 0.68 0 0 Z " fill="#9D1A22" transform="translate(638,586)"/>
<path d="M0 0 C0.66 0.33 1.32 0.66 2 1 C-0.31 6.61 -2.62 12.22 -5 18 C-5.33 18 -5.66 18 -6 18 C-6 16.35 -6 14.7 -6 13 C-6.66 13 -7.32 13 -8 13 C-8 12.01 -8 11.02 -8 10 C-6.68 10 -5.36 10 -4 10 C-3.71125 9.0925 -3.4225 8.185 -3.125 7.25 C-2.23468224 4.67797092 -1.28505587 2.38653234 0 0 Z " fill="#DA1A21" transform="translate(662,530)"/>
<path d="M0 0 C0.33 0.66 0.66 1.32 1 2 C1.66 2 2.32 2 3 2 C5.02881774 6.31123771 6.25329329 9.18742747 6 14 C6.29749946 15.67343448 6.62127066 17.34305915 7 19 C6.67 18.01 6.34 17.02 6 16 C5.34 16 4.68 16 4 16 C4 14.02 4 12.04 4 10 C3.34 10 2.68 10 2 10 C2 8.02 2 6.04 2 4 C1.34 4 0.68 4 0 4 C0 2.68 0 1.36 0 0 Z " fill="#DB1D2C" transform="translate(627,756)"/>
<path d="M0 0 C2.08343904 2.50012684 3.71433305 5.14195318 5.25 8 C5.60578125 8.66 5.9615625 9.32 6.328125 10 C7.13384316 12.39841683 6.81998065 13.64518377 6 16 C2.911493 13.2203437 1.12324929 11.02497664 0 7 C-0.07646165 4.6679198 -0.09143299 2.33154122 0 0 Z " fill="#C91925" transform="translate(569,628)"/>
<path d="M0 0 C0.66 0 1.32 0 2 0 C3.98 3.63 5.96 7.26 8 11 C7.01 11.495 7.01 11.495 6 12 C5.34 12.66 4.68 13.32 4 14 C0.74031891 4.58997722 0.74031891 4.58997722 0 0 Z " fill="#C81926" transform="translate(554,603)"/>
<path d="M0 0 C0 2.97 0 5.94 0 9 C-0.99 9 -1.98 9 -3 9 C-3.33 9.66 -3.66 10.32 -4 11 C-4.66 10.67 -5.32 10.34 -6 10 C-5.55090939 8.51800098 -5.09043436 7.03944764 -4.625 5.5625 C-4.36976563 4.73878906 -4.11453125 3.91507813 -3.8515625 3.06640625 C-2.98795614 0.97077431 -2.43893676 0 0 0 Z " fill="#F8EBEB" transform="translate(656,554)"/>
<path d="M0 0 C0.33 0 0.66 0 1 0 C0.46148032 5.27749285 -0.77343836 9.25645564 -3 14 C-3.99 13.67 -4.98 13.34 -6 13 C-4.58707905 8.1725201 -2.57025846 4.2837641 0 0 Z " fill="#EA2531" transform="translate(688,719)"/>
<path d="M0 0 C0.99 0.33 1.98 0.66 3 1 C2.21658881 2.98244892 1.42302514 4.96088859 0.625 6.9375 C0.18414063 8.03964844 -0.25671875 9.14179687 -0.7109375 10.27734375 C-2 13 -2 13 -4 14 C-4.99 13.34 -5.98 12.68 -7 12 C-6.67 11.34 -6.34 10.68 -6 10 C-5.34 10 -4.68 10 -4 10 C-2.68 6.7 -1.36 3.4 0 0 Z " fill="#DB454B" transform="translate(749,576)"/>
<path d="M0 0 C7.44680851 11.17021277 7.44680851 11.17021277 6.625 16.375 C6.41875 16.91125 6.2125 17.4475 6 18 C3.24504247 15.63860783 2.30761472 13.58947346 1.3125 10.125 C1.06113281 9.28195312 0.80976563 8.43890625 0.55078125 7.5703125 C-0.00715419 4.96661379 -0.09988136 2.65399031 0 0 Z " fill="#D3293E" transform="translate(426,562)"/>
<path d="M0 0 C0.66 0 1.32 0 2 0 C2.30017023 4.16486198 1.45324946 6.65015727 -0.5 10.3125 C-0.9640625 11.19550781 -1.428125 12.07851563 -1.90625 12.98828125 C-2.2671875 13.65214844 -2.628125 14.31601562 -3 15 C-5 12 -5 12 -4.625 9.3125 C-4.41875 8.549375 -4.2125 7.78625 -4 7 C-3.34 7 -2.68 7 -2 7 C-1.855625 6.21625 -1.71125 5.4325 -1.5625 4.625 C-1 2 -1 2 0 0 Z " fill="#EA202D" transform="translate(790,482)"/>
<path d="M0 0 C0.66 0 1.32 0 2 0 C2.72726052 1.5747294 3.43120422 3.16024279 4.125 4.75 C4.51945313 5.63171875 4.91390625 6.5134375 5.3203125 7.421875 C6 10 6 10 5.1171875 12.328125 C4.74851562 12.87984375 4.37984375 13.4315625 4 14 C-0.59225513 4.58997722 -0.59225513 4.58997722 0 0 Z " fill="#DE1D2C" transform="translate(667,736)"/>
<path d="M0 0 C2.34601486 2.13274079 3.86264449 4.02537789 5 7 C5.125 9.75 5.125 9.75 5 12 C4.01 12 3.02 12 2 12 C1.01 8.37 0.02 4.74 -1 1 C-0.67 0.67 -0.34 0.34 0 0 Z " fill="#D61B2E" transform="translate(605,703)"/>
<path d="M0 0 C4.95245213 0.15007431 7.36965314 2.86069058 10.7421875 6.11328125 C12 8 12 8 11.6953125 10.23046875 C11.46585938 10.81441406 11.23640625 11.39835937 11 12 C10.34 10.68 9.68 9.36 9 8 C8.34 8 7.68 8 7 8 C5.71569138 6.52304509 4.43419292 5.04193862 3.21875 3.5078125 C1.93215329 1.86186905 1.93215329 1.86186905 0 0 Z " fill="#F82535" transform="translate(508,448)"/>
<path d="M0 0 C3.39192363 0.59283621 5.2107757 1.76743189 7.75 4.0625 C8.67039062 4.88427734 8.67039062 4.88427734 9.609375 5.72265625 C10.29773438 6.35494141 10.29773438 6.35494141 11 7 C10.67 7.66 10.34 8.32 10 9 C8 8 6 7 4 6 C4 5.34 4 4.68 4 4 C2.68 3.34 1.36 2.68 0 2 C0 1.34 0 0.68 0 0 Z " fill="#D81A2A" transform="translate(304,301)"/>
<path d="M0 0 C0 1.32 0 2.64 0 4 C-3.3 4 -6.6 4 -10 4 C-10.33 3.01 -10.66 2.02 -11 1 C-9.54182203 0.83197949 -8.0834516 0.66562857 -6.625 0.5 C-5.81289063 0.4071875 -5.00078125 0.314375 -4.1640625 0.21875 C-2 0 -2 0 0 0 Z " fill="#D91F2C" transform="translate(652,814)"/>
<path d="M0 0 C0.66 0 1.32 0 2 0 C2.67667998 1.24460783 3.34094719 2.49596896 4 3.75 C4.556875 4.79414062 4.556875 4.79414062 5.125 5.859375 C6 8 6 8 6 12 C3 11 3 11 1.3125 7.6875 C0 4 0 4 0 0 Z " fill="#D31A25" transform="translate(547,590)"/>
<path d="M0 0 C3 3.75 3 3.75 3 6 C3.66 6 4.32 6 5 6 C6.25664978 8.90600261 7 10.79604584 7 14 C4 13 4 13 2.83203125 11.07421875 C2.49558594 10.28660156 2.15914063 9.49898437 1.8125 8.6875 C1.46832031 7.90761719 1.12414062 7.12773438 0.76953125 6.32421875 C0 4 0 4 0 0 Z " fill="#D21B2D" transform="translate(408,524)"/>
<path d="M0 0 C0.680625 0.70125 1.36125 1.4025 2.0625 2.125 C5.20780513 5.27934337 8.5888386 8.13934304 12 11 C11.01 11.33 10.02 11.66 9 12 C6.8125 10.6875 6.8125 10.6875 5 9 C5 8.34 5 7.68 5 7 C4.01 6.67 3.02 6.34 2 6 C2 5.34 2 4.68 2 4 C1.01 3.67 0.02 3.34 -1 3 C-0.67 2.01 -0.34 1.02 0 0 Z " fill="#D81521" transform="translate(376,362)"/>
<path d="M0 0 C0.66 0 1.32 0 2 0 C2.5345256 1.24420647 3.05208611 2.49570936 3.5625 3.75 C3.85253906 4.44609375 4.14257812 5.1421875 4.44140625 5.859375 C5.07831803 8.30012784 4.80248831 9.6403655 4 12 C2 11 2 11 0.875 8.25 C0.08026605 5.29813104 -0.17810598 3.02780163 0 0 Z " fill="#CB1829" transform="translate(514,783)"/>
<path d="M0 0 C0.66 0 1.32 0 2 0 C1.5020163 3.73487777 1.12508244 5.81237635 -1 9 C-2.32 9 -3.64 9 -5 9 C-4.67 7.68 -4.34 6.36 -4 5 C-3.67 5.33 -3.34 5.66 -3 6 C-2.01 4.02 -1.02 2.04 0 0 Z " fill="#D31C26" transform="translate(697,698)"/>
<path d="M0 0 C0.33 0.66 0.66 1.32 1 2 C1.66 2 2.32 2 3 2 C6 8.625 6 8.625 6 12 C3 11 3 11 1.796875 9.00390625 C1.45140625 8.19824219 1.1059375 7.39257812 0.75 6.5625 C0.39421875 5.75941406 0.0384375 4.95632813 -0.328125 4.12890625 C-1 2 -1 2 0 0 Z " fill="#FB1F2E" transform="translate(642,681)"/>
<path d="M0 0 C5.57142857 5.14285714 5.57142857 5.14285714 6 9 C4.68 9 3.36 9 2 9 C0.4375 6.1875 0.4375 6.1875 -1 3 C-0.67 2.01 -0.34 1.02 0 0 Z " fill="#FC202A" transform="translate(630,659)"/>
<path d="M0 0 C0.66 0 1.32 0 2 0 C1.44894091 3.9492568 0.61064629 7.34920174 -1 11 C-1.99 11 -2.98 11 -4 11 C-3.49357808 6.64477147 -2.61588503 3.55760365 0 0 Z " fill="#ED2432" transform="translate(637,549)"/>
<path d="M0 0 C5.75 1.875 5.75 1.875 8 3 C8.72693904 4.97888961 9.39816251 6.97954558 10 9 C9.34 9.66 8.68 10.32 8 11 C6.66375099 9.35653302 5.33107149 7.71016314 4 6.0625 C3.2575 5.14597656 2.515 4.22945313 1.75 3.28515625 C0 1 0 1 0 0 Z " fill="#D91F26" transform="translate(479,423)"/>
<path d="M0 0 C0.99 0.33 1.98 0.66 3 1 C2.44271087 4.34373475 1.64826111 7.03312999 0 10 C-0.66 10 -1.32 10 -2 10 C-2 10.66 -2 11.32 -2 12 C-2.66 12 -3.32 12 -4 12 C-2.66666667 8 -1.33333333 4 0 0 Z " fill="#F7262D" transform="translate(824,405)"/>
<path d="M0 0 C0.66 0 1.32 0 2 0 C2 0.66 2 1.32 2 2 C3.32 2 4.64 2 6 2 C6.99 2.66 7.98 3.32 9 4 C5.36576791 6.32590854 2.22911669 6.16265833 -2 6 C-1.34 4.02 -0.68 2.04 0 0 Z " fill="#E91D24" transform="translate(711,650)"/>
<path d="M0 0 C2.17084385 3.25626577 3.64724049 6.32822419 5 10 C4.67 11.32 4.34 12.64 4 14 C2.68 11.36 1.36 8.72 0 6 C-0.99 6.495 -0.99 6.495 -2 7 C-1.125 2.25 -1.125 2.25 0 0 Z " fill="#D41E24" transform="translate(694,575)"/>
<path d="M0 0 C0.99 0 1.98 0 3 0 C3 3.63 3 7.26 3 11 C0.3534665 8.3534665 -0.59941997 5.43778736 -2 2 C-1.34 2 -0.68 2 0 2 C0 1.34 0 0.68 0 0 Z " fill="#B01626" transform="translate(482,694)"/>
<path d="M0 0 C1.890625 0.21484375 1.890625 0.21484375 4 1 C5.046875 3.06640625 5.046875 3.06640625 5.75 5.5625 C5.99234375 6.38878906 6.2346875 7.21507812 6.484375 8.06640625 C6.65453125 8.70449219 6.8246875 9.34257813 7 10 C2.57320993 8.52440331 2.08567304 6.09942632 0 2 C0 1.34 0 0.68 0 0 Z " fill="#FA2332" transform="translate(607,620)"/>
<path d="M0 0 C0.33 0 0.66 0 1 0 C1.125 5.75 1.125 5.75 0 8 C0.99 8.33 1.98 8.66 3 9 C1.68 9.33 0.36 9.66 -1 10 C-1 10.66 -1 11.32 -1 12 C-1.99 12 -2.98 12 -4 12 C-2.66666667 8 -1.33333333 4 0 0 Z " fill="#DE363B" transform="translate(681,585)"/>
<path d="M0 0 C0.66 0 1.32 0 2 0 C3.39195915 4.17587745 1.82323219 6.13474776 0 10 C-0.33 9.34 -0.66 8.68 -1 8 C-1.66 8 -2.32 8 -3 8 C-2.37240135 5.07120629 -1.41377341 2.63904371 0 0 Z " fill="#AA1721" transform="translate(642,572)"/>
<path d="M0 0 C0.99 0 1.98 0 3 0 C3.66 1.98 4.32 3.96 5 6 C5.66 6 6.32 6 7 6 C6.67 7.32 6.34 8.64 6 10 C2.51668565 6.98112756 1.20842856 4.43090471 0 0 Z " fill="#D21E27" transform="translate(359,432)"/>
<path d="M0 0 C0.66 0.33 1.32 0.66 2 1 C1.34 3.97 0.68 6.94 0 10 C-1.32 10.33 -2.64 10.66 -4 11 C-3.52269162 9.5410574 -3.04308958 8.08286504 -2.5625 6.625 C-2.29566406 5.81289063 -2.02882813 5.00078125 -1.75390625 4.1640625 C-1 2 -1 2 0 0 Z " fill="#F8262B" transform="translate(815,426)"/>
<path d="M0 0 C1.5 1.375 1.5 1.375 3 3 C3 3.66 3 4.32 3 5 C3.66 5 4.32 5 5 5 C5.33 6.98 5.66 8.96 6 11 C2.60582235 7.87378374 0.3937282 5.43458973 -1 1 C-0.67 0.67 -0.34 0.34 0 0 Z " fill="#C81B29" transform="translate(326,373)"/>
<path d="M0 0 C4.02550319 1.3418344 4.88285636 3.4227573 7 7 C7 7.66 7 8.32 7 9 C5.1875 8.8125 5.1875 8.8125 3 8 C0.85802506 5.09303401 0 3.64478912 0 0 Z " fill="#D91B28" transform="translate(301,335)"/>
<path d="M0 0 C0.99 0 1.98 0 3 0 C-0.07517084 10.55808656 -0.07517084 10.55808656 -2 15 C-3.125 13.3125 -3.125 13.3125 -4 11 C-3.125 8.25 -3.125 8.25 -2 6 C-1.34 6 -0.68 6 0 6 C0 4.02 0 2.04 0 0 Z " fill="#F6E2DC" transform="translate(673,599)"/>
<path d="M0 0 C0.66 0 1.32 0 2 0 C6 6.625 6 6.625 6 10 C3 9 3 9 1.3125 6.6875 C0 4 0 4 0 0 Z " fill="#F82336" transform="translate(551,523)"/>
<path d="M0 0 C0 0.99 0 1.98 0 3 C1.32 3.33 2.64 3.66 4 4 C4 4.66 4 5.32 4 6 C3.01 6.495 3.01 6.495 2 7 C1.01 8.485 1.01 8.485 0 10 C-1.32 7.03 -2.64 4.06 -4 1 C-2 0 -2 0 0 0 Z " fill="#D01020" transform="translate(407,517)"/>
<path d="M0 0 C0.66 0 1.32 0 2 0 C2 0.99 2 1.98 2 3 C2.66 3 3.32 3 4 3 C5.125 6.3125 5.125 6.3125 6 10 C5.01 11.485 5.01 11.485 4 13 C3.32694982 11.39850114 2.66177773 9.79368971 2 8.1875 C1.62875 7.29417969 1.2575 6.40085937 0.875 5.48046875 C0 3 0 3 0 0 Z " fill="#D0363D" transform="translate(737,573)"/>
<path d="M0 0 C2.45234885 0.98093954 3.7809268 1.68703828 5.3125 3.875 C6.12082372 6.37345514 5.71847013 7.52928976 5 10 C4.15801693 8.90241493 3.32669329 7.79664683 2.5 6.6875 C2.0359375 6.07261719 1.571875 5.45773437 1.09375 4.82421875 C0 3 0 3 0 0 Z " fill="#DF1D2F" transform="translate(523,551)"/>
<path d="M0 0 C4.8 3.32307692 4.8 3.32307692 5.8125 6.75 C5.874375 7.4925 5.93625 8.235 6 9 C5.34 9 4.68 9 4 9 C4 8.34 4 7.68 4 7 C3.34 7 2.68 7 2 7 C2 6.34 2 5.68 2 5 C1.34 5 0.68 5 0 5 C-0.5625 3.0625 -0.5625 3.0625 -1 1 C-0.67 0.67 -0.34 0.34 0 0 Z " fill="#F6222C" transform="translate(567,512)"/>
<path d="M0 0 C2.475 0.99 2.475 0.99 5 2 C4.34 4.31 3.68 6.62 3 9 C0.86928411 6.40608501 -0.53582673 4.36525621 -1 1 C-0.67 0.67 -0.34 0.34 0 0 Z " fill="#D1182C" transform="translate(389,485)"/>
<path d="M0 0 C0.33 0.66 0.66 1.32 1 2 C1.66 2 2.32 2 3 2 C3.268125 2.969375 3.53625 3.93875 3.8125 4.9375 C4.204375 5.948125 4.59625 6.95875 5 8 C5.99 8.33 6.98 8.66 8 9 C8 9.66 8 10.32 8 11 C6.25 10.9375 6.25 10.9375 4 10 C1.55272534 6.7838181 0 4.07605096 0 0 Z " fill="#F8232E" transform="translate(522,479)"/>
<path d="M0 0 C2.53910197 0.38520564 3.72751123 0.70097943 5.484375 2.62890625 C5.90203125 3.26699219 6.3196875 3.90507812 6.75 4.5625 C7.17796875 5.20316406 7.6059375 5.84382813 8.046875 6.50390625 C8.36140625 6.99761719 8.6759375 7.49132812 9 8 C7.68 8 6.36 8 5 8 C5 7.34 5 6.68 5 6 C4.34 6 3.68 6 3 6 C0 2.53846154 0 2.53846154 0 0 Z " fill="#FD2330" transform="translate(521,460)"/>
<path d="M0 0 C3.67420866 0.30618405 4.78135513 0.75771784 7.3125 3.5625 C8.1478125 4.7690625 8.1478125 4.7690625 9 6 C7.68 6 6.36 6 5 6 C5 5.34 5 4.68 5 4 C3.35 3.67 1.7 3.34 0 3 C0 2.01 0 1.02 0 0 Z " fill="#D21521" transform="translate(403,393)"/>
<path d="M0 0 C2.37948772 0.17625835 3.70225849 0.69719773 5.37890625 2.40234375 C6.62115486 3.90649092 7.81376056 5.45129851 9 7 C8.01 7.66 7.02 8.32 6 9 C5.67 7.35 5.34 5.7 5 4 C3.35 3.67 1.7 3.34 0 3 C0 2.01 0 1.02 0 0 Z " fill="#DC1320" transform="translate(389,377)"/>
<path d="M0 0 C5.46428571 0.60714286 5.46428571 0.60714286 7.875 2.375 C9 4 9 4 9 7 C6.50638429 5.79618552 4.31856917 4.54571278 2 3 C2 2.34 2 1.68 2 1 C1.34 0.67 0.68 0.34 0 0 Z " fill="#CA1A2C" transform="translate(293,294)"/>
<path d="M0 0 C0.99 0.33 1.98 0.66 3 1 C2.25 3.9375 2.25 3.9375 1 7 C-1.125 7.875 -1.125 7.875 -3 8 C-1.125 1.125 -1.125 1.125 0 0 Z " fill="#F6252F" transform="translate(681,734)"/>
<path d="M0 0 C2.15377564 2.62198774 3.40072174 4.64404172 4 8 C2.68 8 1.36 8 0 8 C0 7.34 0 6.68 0 6 C-0.66 6 -1.32 6 -2 6 C-1.34 4.02 -0.68 2.04 0 0 Z " fill="#D2242D" transform="translate(690,566)"/>
<path d="M0 0 C2.0625 0.4375 2.0625 0.4375 4 1 C3 4 3 4 1 5 C0.67 5.99 0.34 6.98 0 8 C-0.66 8 -1.32 8 -2 8 C-1.125 1.125 -1.125 1.125 0 0 Z " fill="#F11D2B" transform="translate(675,463)"/>
<path d="M0 0 C1.09658936 3.28976808 0.79953138 4.71303767 0 8 C-0.66 8 -1.32 8 -2 8 C-2 8.99 -2 9.98 -2 11 C-2.66 11 -3.32 11 -4 11 C-3.125 4.25 -3.125 4.25 -2 2 C-1.34 2 -0.68 2 0 2 C0 1.34 0 0.68 0 0 Z " fill="#F82632" transform="translate(703,401)"/>
<path d="M0 0 C0.33 0.99 0.66 1.98 1 3 C1.66 3 2.32 3 3 3 C4.35439668 5.70879335 4.06501451 8.00933268 4 11 C1.11670417 7.744666 -0.63331529 5.40021656 -1 1 C-0.67 0.67 -0.34 0.34 0 0 Z " fill="#D81B2C" transform="translate(334,385)"/>
<path d="M0 0 C2 1 2 1 3.125 4.3125 C4 8 4 8 4 12 C1.95780294 10.30820672 1.08206694 9.36272334 0.48828125 6.73828125 C0.43027344 5.93777344 0.37226563 5.13726563 0.3125 4.3125 C0.24675781 3.50425781 0.18101562 2.69601562 0.11328125 1.86328125 C0.07589844 1.24839844 0.03851563 0.63351562 0 0 Z " fill="#DC1928" transform="translate(503,750)"/>
<path d="M0 0 C4.875 3.625 4.875 3.625 6 7 C5.01 8.485 5.01 8.485 4 10 C3.34 9.67 2.68 9.34 2 9 C1.3671875 6.93359375 1.3671875 6.93359375 0.875 4.4375 C0.70742188 3.61121094 0.53984375 2.78492188 0.3671875 1.93359375 C0.24601563 1.29550781 0.12484375 0.65742187 0 0 Z " fill="#DC1829" transform="translate(576,645)"/>
<path d="M0 0 C3.53586014 3.17320782 5.58578031 5.16743695 6 10 C3 9 3 9 1.3125 6.125 C0 3 0 3 0 0 Z " fill="#FA2737" transform="translate(623,647)"/>
<path d="M0 0 C-0.66 2.31 -1.32 4.62 -2 7 C-2.33 6.34 -2.66 5.68 -3 5 C-4.32 5 -5.64 5 -7 5 C-7 4.34 -7 3.68 -7 3 C-4.4385343 0.70351351 -3.52032428 0 0 0 Z " fill="#F3222E" transform="translate(779,514)"/>
<path d="M0 0 C5.57142857 5.14285714 5.57142857 5.14285714 6 9 C5.01 9 4.02 9 3 9 C1.68 6.36 0.36 3.72 -1 1 C-0.67 0.67 -0.34 0.34 0 0 Z " fill="#D02230" transform="translate(351,416)"/>
<path d="M0 0 C2.97 0.495 2.97 0.495 6 1 C6 1.99 6 2.98 6 4 C5.01 4 4.02 4 3 4 C3.33 5.32 3.66 6.64 4 8 C1.10067643 5.60490662 0.49831724 3.68754757 0 0 Z " fill="#C51826" transform="translate(253,266)"/>
<path d="M0 0 C2 1 2 1 2.8515625 3.06640625 C3.10679687 3.89011719 3.36203125 4.71382812 3.625 5.5625 C3.88539063 6.38878906 4.14578125 7.21507812 4.4140625 8.06640625 C4.60742188 8.70449219 4.80078125 9.34257813 5 10 C4.34 10.66 3.68 11.32 3 12 C-0.42857143 4.71428571 -0.42857143 4.71428571 0 0 Z " fill="#F2202E" transform="translate(657,712)"/>
<path d="M0 0 C0.66 0 1.32 0 2 0 C2 1.65 2 3.3 2 5 C2.99 5 3.98 5 5 5 C5.33 6.98 5.66 8.96 6 11 C3 10 3 10 2.05078125 8.22265625 C1.80714844 7.50980469 1.56351562 6.79695312 1.3125 6.0625 C1.06113281 5.35222656 0.80976563 4.64195312 0.55078125 3.91015625 C0 2 0 2 0 0 Z " fill="#9B4452" transform="translate(464,649)"/>
<path d="M0 0 C0.66 0.33 1.32 0.66 2 1 C1.34 2.98 0.68 4.96 0 7 C-0.66 6.01 -1.32 5.02 -2 4 C-1.34 2.68 -0.68 1.36 0 0 Z M-3 7 C-1.02 7.99 -1.02 7.99 1 9 C0.01 9.33 -0.98 9.66 -2 10 C-2.33 9.01 -2.66 8.02 -3 7 Z " fill="#EB1B26" transform="translate(630,650)"/>
<path d="M0 0 C0.66 0 1.32 0 2 0 C1.67 1.32 1.34 2.64 1 4 C-3.29 4 -7.58 4 -12 4 C-12 3.67 -12 3.34 -12 3 C-6.06 2.505 -6.06 2.505 0 2 C0 1.34 0 0.68 0 0 Z " fill="#8A8A8A" transform="translate(238,609)"/>
<path d="M0 0 C0.66 0 1.32 0 2 0 C2.33 0.99 2.66 1.98 3 3 C3.66 3.33 4.32 3.66 5 4 C5 6.31 5 8.62 5 11 C2.03947516 7.63576723 1.07710178 4.30840713 0 0 Z " fill="#9A3640" transform="translate(445,605)"/>
<path d="M0 0 C0.66 0 1.32 0 2 0 C3.1875 1.5625 3.1875 1.5625 4 4 C2.625 7.75 2.625 7.75 1 11 C-0.17571451 7.32589215 -0.07366746 3.83070817 0 0 Z " fill="#D82124" transform="translate(652,546)"/>
<path d="M0 0 C0.66 0.66 1.32 1.32 2 2 C2.66 2 3.32 2 4 2 C3.67 2.99 3.34 3.98 3 5 C3.66 5.33 4.32 5.66 5 6 C4.67 6.99 4.34 7.98 4 9 C1.4375 6.75 1.4375 6.75 -1 4 C-0.8125 1.6875 -0.8125 1.6875 0 0 Z " fill="#D31723" transform="translate(296,325)"/>
<path d="M0 0 C1.875 0.625 1.875 0.625 4 2 C5.25 5.125 5.25 5.125 6 8 C5.01 8 4.02 8 3 8 C0 2.25 0 2.25 0 0 Z " fill="#DB1C24" transform="translate(559,613)"/>
<path d="M0 0 C1.8125 0.1875 1.8125 0.1875 4 1 C5.75 3.5625 5.75 3.5625 7 6 C6.01 6.33 5.02 6.66 4 7 C4 6.34 4 5.68 4 5 C3.34 5 2.68 5 2 5 C1.34 3.35 0.68 1.7 0 0 Z " fill="#FB2132" transform="translate(603,562)"/>
<path d="M0 0 C0.66 0 1.32 0 2 0 C3.32 2.64 4.64 5.28 6 8 C5.01 8 4.02 8 3 8 C0.89229241 5.11165997 0 3.61537605 0 0 Z " fill="#D91A2D" transform="translate(530,562)"/>
<path d="M0 0 C4.92307692 4.30769231 4.92307692 4.30769231 5.3125 7.8125 C5.209375 8.534375 5.10625 9.25625 5 10 C4.67 9.34 4.34 8.68 4 8 C3.34 8 2.68 8 2 8 C0.74335022 5.09399739 0 3.20395416 0 0 Z " fill="#DC1D2D" transform="translate(512,532)"/>
<path d="M0 0 C3 1 3 1 5 4 C5 4.99 5 5.98 5 7 C4.01 7 3.02 7 2 7 C2 6.01 2 5.02 2 4 C1.34 4 0.68 4 0 4 C0 2.68 0 1.36 0 0 Z " fill="#CB1C2C" transform="translate(422,413)"/>
<path d="M0 0 C2.31 1.98 4.62 3.96 7 6 C5.68 6.33 4.36 6.66 3 7 C1.25 5.8125 1.25 5.8125 0 4 C0 2.68 0 1.36 0 0 Z " fill="#A5111F" transform="translate(399,386)"/>
<path d="M0 0 C1.5 1.375 1.5 1.375 3 3 C3 3.66 3 4.32 3 5 C3.99 5 4.98 5 6 5 C6 5.66 6 6.32 6 7 C5.34 7 4.68 7 4 7 C3.67 7.99 3.34 8.98 3 10 C2.49596232 8.70990357 1.99690074 7.41786211 1.5 6.125 C1.2215625 5.40570312 0.943125 4.68640625 0.65625 3.9453125 C0 2 0 2 0 0 Z " fill="#FC1A29" transform="translate(636,670)"/>
<path d="M0 0 C1.32 0.66 2.64 1.32 4 2 C3.34 3.65 2.68 5.3 2 7 C1.34 7 0.68 7 0 7 C-0.38133299 5.0085944 -0.71325582 3.00720923 -1 1 C-0.67 0.67 -0.34 0.34 0 0 Z " fill="#F1E4E5" transform="translate(721,643)"/>
<path d="M0 0 C0.66 0 1.32 0 2 0 C2 2.64 2 5.28 2 8 C1.01 8.495 1.01 8.495 0 9 C-1.125 6.75 -1.125 6.75 -2 4 C-1.125 1.6875 -1.125 1.6875 0 0 Z " fill="#C11224" transform="translate(631,568)"/>
<path d="M0 0 C0.66666667 2.66666667 1.33333333 5.33333333 2 8 C1.34 8 0.68 8 0 8 C-0.33 8.66 -0.66 9.32 -1 10 C-2.1875 7.8125 -2.1875 7.8125 -3 5 C-1.625 2.1875 -1.625 2.1875 0 0 Z " fill="#CC1721" transform="translate(417,536)"/>
<path d="M0 0 C2.95183101 2.95183101 3.08663988 5.95511947 4 10 C3.34 10 2.68 10 2 10 C2 9.34 2 8.68 2 8 C1.34 8 0.68 8 0 8 C0 5.36 0 2.72 0 0 Z " fill="#F3E4E5" transform="translate(717,530)"/>
<path d="M0 0 C0.66 0 1.32 0 2 0 C2 0.66 2 1.32 2 2 C2.66 2 3.32 2 4 2 C4 2.66 4 3.32 4 4 C4.66 4 5.32 4 6 4 C5.67 5.32 5.34 6.64 5 8 C2.20127563 5.47211993 0.54226981 3.79588866 0 0 Z " fill="#F7252C" transform="translate(545,515)"/>
<path d="M0 0 C0.99 0.33 1.98 0.66 3 1 C2.34 2.32 1.68 3.64 1 5 C-0.98 5 -2.96 5 -5 5 C-4.34 3.68 -3.68 2.36 -3 1 C-3 1.66 -3 2.32 -3 3 C-2.01 3 -1.02 3 0 3 C0 2.01 0 1.02 0 0 Z " fill="#DC1D25" transform="translate(783,499)"/>
<path d="M0 0 C1.875 0.3125 1.875 0.3125 4 1 C6 4 6 4 6 7 C3.00675737 5.9024777 2.15389099 5.32317108 0.75 2.375 C0.5025 1.59125 0.255 0.8075 0 0 Z " fill="#FB1F2D" transform="translate(533,498)"/>
<path d="M0 0 C0.66 0.33 1.32 0.66 2 1 C1.39009109 4.55780196 0.4216319 7.6828589 -1 11 C-1.33 11 -1.66 11 -2 11 C-2 8.36 -2 5.72 -2 3 C-1.34 3 -0.68 3 0 3 C0 2.01 0 1.02 0 0 Z " fill="#D01C29" transform="translate(818,421)"/>
<path d="M0 0 C4.8 3.32307692 4.8 3.32307692 5.8125 6.75 C5.874375 7.4925 5.93625 8.235 6 9 C3.5 7.1875 3.5 7.1875 1 5 C1 4.01 1 3.02 1 2 C0.34 1.67 -0.32 1.34 -1 1 C-0.67 0.67 -0.34 0.34 0 0 Z " fill="#D71D2F" transform="translate(415,404)"/>
<path d="M0 0 C2.62187494 1.04874998 3.79371361 1.64931313 5.25 4.125 C5.4975 4.74375 5.745 5.3625 6 6 C4.68 6 3.36 6 2 6 C1.34 4.02 0.68 2.04 0 0 Z " fill="#C41A2D" transform="translate(313,354)"/>
<path d="M0 0 C1.5 1.1875 1.5 1.1875 3 3 C3.1875 5.6875 3.1875 5.6875 3 8 C2.34 8 1.68 8 1 8 C0.34 5.69 -0.32 3.38 -1 1 C-0.67 0.67 -0.34 0.34 0 0 Z " fill="#DD1B31" transform="translate(621,739)"/>
<path d="M0 0 C0.66 0 1.32 0 2 0 C2 0.99 2 1.98 2 3 C3.32 2.67 4.64 2.34 6 2 C5.34 4.31 4.68 6.62 4 9 C1.49701566 6.06171403 0.53069061 3.82097239 0 0 Z " fill="#9F2D3C" transform="translate(454,625)"/>
<path d="M0 0 C3 1 3 1 4.6875 4.0625 C5.120625 5.031875 5.55375 6.00125 6 7 C5.01 7.33 4.02 7.66 3 8 C0 2.25 0 2.25 0 0 Z " fill="#DC1D2D" transform="translate(540,579)"/>
<path d="M0 0 C0.33 0 0.66 0 1 0 C0.67 3.3 0.34 6.6 0 10 C-0.66 10 -1.32 10 -2 10 C-3.39195915 5.82412255 -1.82323219 3.86525224 0 0 Z " fill="#F5273C" transform="translate(646,528)"/>
<path d="M0 0 C0.33 0.99 0.66 1.98 1 3 C0.34 3 -0.32 3 -1 3 C-1 4.98 -1 6.96 -1 9 C-1.66 9 -2.32 9 -3 9 C-3.75 7.3125 -3.75 7.3125 -4 5 C-2.0625 2.25 -2.0625 2.25 0 0 Z " fill="#FA222B" transform="translate(664,491)"/>
<path d="M0 0 C0.33 0 0.66 0 1 0 C0.25 6.75 0.25 6.75 -2 9 C-3.21185923 5.36442231 -2.59260392 4.36216382 -1 1 C-0.67 0.67 -0.34 0.34 0 0 Z " fill="#FB2534" transform="translate(808,443)"/>
<path d="M0 0 C1.65 1.65 3.3 3.3 5 5 C4.01 5.33 3.02 5.66 2 6 C2 5.34 2 4.68 2 4 C0.02 3.34 -1.96 2.68 -4 2 C-3.34 1.67 -2.68 1.34 -2 1 C-1.34 1.33 -0.68 1.66 0 2 C0 1.34 0 0.68 0 0 Z " fill="#F72F38" transform="translate(485,422)"/>
<path d="M0 0 C1.9375 0.25 1.9375 0.25 4 1 C6 4 6 4 6 7 C5.34 7 4.68 7 4 7 C4 6.01 4 5.02 4 4 C3.34 4 2.68 4 2 4 C2 3.34 2 2.68 2 2 C1.01 1.67 0.02 1.34 -1 1 C-0.67 0.67 -0.34 0.34 0 0 Z " fill="#D91625" transform="translate(333,324)"/>
<path d="M0 0 C2.31 0.33 4.62 0.66 7 1 C5.515 2.485 5.515 2.485 4 4 C4.33 4.66 4.66 5.32 5 6 C4.01 6.33 3.02 6.66 2 7 C1.34 4.69 0.68 2.38 0 0 Z " fill="#ED2035" transform="translate(255,268)"/>
<path d="M0 0 C1.96301592 3.50538557 2.95902388 7.13351728 4 11 C3.34 11 2.68 11 2 11 C0.19769832 7.17010894 -0.19622241 4.21878192 0 0 Z " fill="#DC1F30" transform="translate(486,704)"/>
<path d="M0 0 C0.99 0.33 1.98 0.66 3 1 C2.34 2.65 1.68 4.3 1 6 C0.01 6 -0.98 6 -2 6 C-1.125 1.125 -1.125 1.125 0 0 Z " fill="#CE1B2E" transform="translate(700,691)"/>
<path d="M0 0 C0.66 0 1.32 0 2 0 C1.34 2.31 0.68 4.62 0 7 C-1.32 7.33 -2.64 7.66 -4 8 C-2.87548273 5.0280615 -1.77706209 2.66559313 0 0 Z " fill="#C7202C" transform="translate(708,673)"/>
<path d="M0 0 C0.66 0 1.32 0 2 0 C3.85776765 3.13498292 4.20140476 5.37471432 4 9 C3.67 8.01 3.34 7.02 3 6 C2.34 6 1.68 6 1 6 C0.67 4.02 0.34 2.04 0 0 Z " fill="#CF1E2D" transform="translate(591,674)"/>
<path d="M0 0 C1.70884005 1.62339805 3.37446717 3.29319053 5 5 C5 5.66 5 6.32 5 7 C4.01 7 3.02 7 2 7 C0.25 5.1875 0.25 5.1875 -1 3 C-0.67 2.01 -0.34 1.02 0 0 Z " fill="#FD232B" transform="translate(597,600)"/>
<path d="M0 0 C0.33 0 0.66 0 1 0 C1.33 2.31 1.66 4.62 2 7 C1.34 7 0.68 7 0 7 C0 7.66 0 8.32 0 9 C-0.99 8.67 -1.98 8.34 -3 8 C-2.01 5.36 -1.02 2.72 0 0 Z " fill="#E8CFD2" transform="translate(640,584)"/>
<path d="M0 0 C0.66 0.66 1.32 1.32 2 2 C1.625 4.125 1.625 4.125 1 6 C0.34 6 -0.32 6 -1 6 C-1 6.99 -1 7.98 -1 9 C-1.66 9 -2.32 9 -3 9 C-2.01 6.03 -1.02 3.06 0 0 Z " fill="#DFC7C4" transform="translate(644,575)"/>
<path d="M0 0 C1.65 1.65 3.3 3.3 5 5 C4.01 5.33 3.02 5.66 2 6 C1.67 6.66 1.34 7.32 1 8 C0.34 7.67 -0.32 7.34 -1 7 C-1 4.37886292 -0.68707555 2.49064888 0 0 Z " fill="#D7151C" transform="translate(556,498)"/>
<path d="M0 0 C1.65 1.65 3.3 3.3 5 5 C3.68 5.33 2.36 5.66 1 6 C0.34 4.35 -0.32 2.7 -1 1 C-0.67 0.67 -0.34 0.34 0 0 Z " fill="#E3172D" transform="translate(483,488)"/>
<path d="M0 0 C0.33 0 0.66 0 1 0 C1 2.64 1 5.28 1 8 C0.01 8.495 0.01 8.495 -1 9 C-1.66 8.34 -2.32 7.68 -3 7 C-2.01 4.69 -1.02 2.38 0 0 Z " fill="#E51B2A" transform="translate(687,434)"/>
<path d="M0 0 C0.66 0 1.32 0 2 0 C2.33 1.98 2.66 3.96 3 6 C2.01 6.33 1.02 6.66 0 7 C-0.66 5.35 -1.32 3.7 -2 2 C-1.34 1.34 -0.68 0.68 0 0 Z " fill="#D81524" transform="translate(357,424)"/>
<path d="M0 0 C0.598125 0.350625 1.19625 0.70125 1.8125 1.0625 C0.8225 2.5475 0.8225 2.5475 -0.1875 4.0625 C-2.6625 3.0725 -2.6625 3.0725 -5.1875 2.0625 C-5.1875 1.4025 -5.1875 0.7425 -5.1875 0.0625 C-2.1875 -0.9375 -2.1875 -0.9375 0 0 Z " fill="#D21629" transform="translate(273.1875,276.9375)"/>
<path d="M0 0 C1.32 0.33 2.64 0.66 4 1 C4.33 2.32 4.66 3.64 5 5 C3.68 5.33 2.36 5.66 1 6 C0.67 4.02 0.34 2.04 0 0 Z " fill="#AE2A39" transform="translate(473,668)"/>
<path d="M0 0 C0.66 0 1.32 0 2 0 C1.34 1.98 0.68 3.96 0 6 C-0.99 6 -1.98 6 -3 6 C-1.125 1.125 -1.125 1.125 0 0 Z " fill="#F53842" transform="translate(717,654)"/>
<path d="M0 0 C0.66 0 1.32 0 2 0 C2 0.66 2 1.32 2 2 C3.32 2.66 4.64 3.32 6 4 C5.67 4.99 5.34 5.98 5 7 C4.67 6.01 4.34 5.02 4 4 C2.68 4 1.36 4 0 4 C0 2.68 0 1.36 0 0 Z " fill="#E9111A" transform="translate(635,612)"/>
<path d="M0 0 C2.18975773 3.28463659 2.99806563 6.20696275 4 10 C3.01 9.67 2.02 9.34 1 9 C0.67 6.03 0.34 3.06 0 0 Z " fill="#D54248" transform="translate(706,603)"/>
<path d="M0 0 C0.66 0 1.32 0 2 0 C3.4606285 2.64738916 4 3.89448334 4 7 C3.01 6.67 2.02 6.34 1 6 C0.67 4.02 0.34 2.04 0 0 Z " fill="#FC2130" transform="translate(574,561)"/>
<path d="M0 0 C1.32 0 2.64 0 4 0 C4 0.66 4 1.32 4 2 C4.66 2.33 5.32 2.66 6 3 C5.01 3.99 4.02 4.98 3 6 C2.01 4.02 1.02 2.04 0 0 Z " fill="#D41C25" transform="translate(541,510)"/>
<path d="M0 0 C0.99 0 1.98 0 3 0 C3 0.66 3 1.32 3 2 C3.66 2 4.32 2 5 2 C5 3.32 5 4.64 5 6 C4.01 5.67 3.02 5.34 2 5 C0.8125 2.4375 0.8125 2.4375 0 0 Z " fill="#F8252C" transform="translate(510,464)"/>
<path d="M0 0 C1.875 0.25 1.875 0.25 4 1 C5.25 3.0625 5.25 3.0625 6 5 C3 5 3 5 1.3125 3.625 C0 2 0 2 0 0 Z " fill="#D41C31" transform="translate(464,465)"/>
<path d="M0 0 C0.75 1.75 0.75 1.75 1 4 C-0.9375 6.25 -0.9375 6.25 -3 8 C-2.25 2.25 -2.25 2.25 0 0 Z " fill="#F52632" transform="translate(680,454)"/>
<path d="M0 0 C2.25245881 2.68841859 3.88213958 4.64641875 5 8 C4.01 8 3.02 8 2 8 C0.23537317 4.91190305 0 3.76687864 0 0 Z " fill="#D51F33" transform="translate(367,444)"/>
<path d="M0 0 C1.32 1.65 2.64 3.3 4 5 C3.34 5.66 2.68 6.32 2 7 C0.68 5.35 -0.64 3.7 -2 2 C-1.34 1.34 -0.68 0.68 0 0 Z " fill="#C51B2C" transform="translate(435,426)"/>
<path d="M0 0 C0.66 0 1.32 0 2 0 C0.125 4.75 0.125 4.75 -1 7 C-1.66 7 -2.32 7 -3 7 C-2.25 2.25 -2.25 2.25 0 0 Z " fill="#C31C27" transform="translate(829,399)"/>
<path d="M0 0 C2.88575819 0.39803561 3.82189513 0.79009069 5.75 3.0625 C6.1625 3.701875 6.575 4.34125 7 5 C4 5 4 5 2 4 C2 3.34 2 2.68 2 2 C1.34 2 0.68 2 0 2 C0 1.34 0 0.68 0 0 Z " fill="#D91C2F" transform="translate(340,331)"/>
<path d="M0 0 C2.97 1.98 2.97 1.98 6 4 C5.67 4.99 5.34 5.98 5 7 C2.5 5.75 2.5 5.75 0 4 C0 2.68 0 1.36 0 0 Z " fill="#DB1323" transform="translate(286,286)"/>
<path d="M0 0 C5.75 1.75 5.75 1.75 8 4 C6.25 4.6875 6.25 4.6875 4 5 C1.75 3.6875 1.75 3.6875 0 2 C0 1.34 0 0.68 0 0 Z " fill="#E21933" transform="translate(276,281)"/>
<path d="M0 0 C2.35953094 2.35953094 2.49141413 3.77895617 3 7 C1.35 7 -0.3 7 -2 7 C-1.34 4.69 -0.68 2.38 0 0 Z " fill="#DCCFD6" transform="translate(451,620)"/>
<path d="M0 0 C0.99 0 1.98 0 3 0 C2.67 1.65 2.34 3.3 2 5 C1.01 4.67 0.02 4.34 -1 4 C-0.67 2.68 -0.34 1.36 0 0 Z " fill="#E61D1F" transform="translate(743,582)"/>
<path d="M0 0 C1.32 0.33 2.64 0.66 4 1 C4 3.64 4 6.28 4 9 C2.00902154 6.01353231 1.05875074 3.40312738 0 0 Z " fill="#F6E4E1" transform="translate(692,569)"/>
<path d="M0 0 C1.98 0.99 1.98 0.99 4 2 C3.34 4.31 2.68 6.62 2 9 C0.14223235 5.86501708 -0.20140476 3.62528568 0 0 Z " fill="#D93D4A" transform="translate(644,566)"/>
<path d="M0 0 C0.99 0 1.98 0 3 0 C2.74438677 2.3431213 2.40729228 4.67843403 2 7 C1.01 7.495 1.01 7.495 0 8 C0 5.36 0 2.72 0 0 Z " fill="#D72830" transform="translate(664,521)"/>
<path d="M0 0 C0.99 0 1.98 0 3 0 C3 1.65 3 3.3 3 5 C2.34 5 1.68 5 1 5 C0.67 5.66 0.34 6.32 0 7 C-0.33 5.68 -0.66 4.36 -1 3 C-0.34 3 0.32 3 1 3 C0.67 2.01 0.34 1.02 0 0 Z " fill="#FA1C29" transform="translate(562,508)"/>
<path d="M0 0 C1.32 1.32 2.64 2.64 4 4 C3.67 4.99 3.34 5.98 3 7 C2.01 6.67 1.02 6.34 0 6 C0 4.02 0 2.04 0 0 Z " fill="#BE1D2C" transform="translate(479,483)"/>
<path d="M0 0 C3.57104439 1.87949705 5.54744301 3.17053157 7 7 C6.01 7 5.02 7 4 7 C3.566875 6.0409375 3.566875 6.0409375 3.125 5.0625 C2.17176549 2.84793921 2.17176549 2.84793921 0 2 C0 1.34 0 0.68 0 0 Z " fill="#F71621" transform="translate(500,437)"/>
<path d="M0 0 C3 1 3 1 4.1875 3.0625 C4.455625 3.701875 4.72375 4.34125 5 5 C3.68 5 2.36 5 1 5 C0.67 3.35 0.34 1.7 0 0 Z " fill="#FD272E" transform="translate(494,440)"/>
<path d="M0 0 C0.66 0.99 1.32 1.98 2 3 C1.01 3.33 0.02 3.66 -1 4 C-1 4.66 -1 5.32 -1 6 C-1.66 6 -2.32 6 -3 6 C-3 5.34 -3 4.68 -3 4 C-3.66 4 -4.32 4 -5 4 C-5 3.34 -5 2.68 -5 2 C-2.525 2.495 -2.525 2.495 0 3 C0 2.01 0 1.02 0 0 Z " fill="#B0181E" transform="translate(412,399)"/>
<path d="M0 0 C1.98 0.99 1.98 0.99 4 2 C4 2.99 4 3.98 4 5 C2.68 4.67 1.36 4.34 0 4 C0 2.68 0 1.36 0 0 Z " fill="#C9142B" transform="translate(329,320)"/>
<path d="M0 0 C0.99 0 1.98 0 3 0 C3.33 1.65 3.66 3.3 4 5 C3.01 5.495 3.01 5.495 2 6 C1.01 4.35 0.02 2.7 -1 1 C-0.67 0.67 -0.34 0.34 0 0 Z " fill="#E0162A" transform="translate(286,313)"/>
</svg>
